<svg width="20" height="20" viewBox="0 0 22 22" fill="none" xmlns="http://www.w3.org/2000/svg">
                                        <circle cx="11" cy="11" r="11" fill="url(#audio0_linear)"></circle>
                                        <path d="M14.728 11.2364C14.728 10.9949 14.5433 10.8102 14.3018 10.8102C14.0603 10.8102 13.8757 10.9949 13.8757 11.2364C13.8757 12.8985 12.5261 14.2481 10.864 14.2481C9.20191 14.2481 7.85235 12.8985 7.85235 11.2364C7.85235 10.9949 7.66768 10.8102 7.42618 10.8102C7.18468 10.8102 7 10.9949 7 11.2364C7 13.211 8.47741 14.8731 10.4378 15.0862V16.2227H8.88938C8.64788 16.2227 8.46321 16.4074 8.46321 16.6489C8.46321 16.8904 8.64788 17.075 8.88938 17.075H12.8386C13.0801 17.075 13.2648 16.8904 13.2648 16.6489C13.2648 16.4074 13.0801 16.2227 12.8386 16.2227H11.2902V15.0862C13.2506 14.8731 14.728 13.211 14.728 11.2364Z" fill="#FAFAFA"></path>
                                        <path d="M10.864 5C9.55707 5 8.49162 6.06544 8.49162 7.37238V11.2222C8.49162 12.5433 9.55707 13.5946 10.864 13.6088C12.171 13.6088 13.2364 12.5433 13.2364 11.2364V7.37238C13.2364 6.06544 12.171 5 10.864 5Z" fill="#FAFAFA"></path>
                                        <defs>
                                            <linearGradient id="audio0_linear" x1="15.5" y1="20.5" x2="8.5" y2="3.5" gradientUnits="userSpaceOnUse">
                                                <stop stop-color="#CD1299"></stop>
                                                <stop offset="1" stop-color="#FF56D0"></stop>
                                            </linearGradient>
                                        </defs>
                                    </svg>