<svg width="20" height="20" viewBox="0 0 22 22" fill="none" xmlns="http://www.w3.org/2000/svg">
                                        <circle cx="11" cy="11" r="11" fill="url(#image0_linear)"></circle>
                                        <path d="M15.4999 6H6.49996C5.67324 6 5 6.6586 5 7.46745V13.9239C5 14.7327 5.67324 15.3913 6.49996 15.3913H15.4999C16.3268 15.3913 17 14.7327 17 13.9239V7.46745C17 6.6586 16.3268 6 15.4999 6V6ZM6.49996 7.17394H15.4999C15.6656 7.17394 15.8 7.30538 15.8 7.46745V11.6342L13.9046 9.47066C13.7036 9.24002 13.4125 9.11675 13.1 9.10976C12.7892 9.11148 12.4976 9.24647 12.2984 9.48012L10.07 12.0967L9.34398 11.3882C8.93364 10.9868 8.26579 10.9868 7.856 11.3882L6.20003 13.0076V7.46745C6.20003 7.30538 6.3344 7.17394 6.49996 7.17394V7.17394Z" fill="#FAFAFA"></path>
                                        <defs>
                                            <linearGradient id="image0_linear" x1="15.5" y1="20.5" x2="8.5" y2="3.5" gradientUnits="userSpaceOnUse">
                                                <stop stop-color="#0C81D6"></stop>
                                                <stop offset="1" stop-color="#1CA8F8"></stop>
                                            </linearGradient>
                                        </defs>
                                    </svg>