<svg width="500" height="500" viewBox="0 0 500 500" fill="none" xmlns="http://www.w3.org/2000/svg">
<path fill-rule="evenodd" clip-rule="evenodd" d="M153.1 215.5C130.233 194.033 99.2 180.967 60 176.3C87.5333 166.033 108.533 151.8 123 133.6C137.933 115.4 145.4 95.1 145.4 72.7C145.4 55.6728 141.487 40.9936 133.66 28.6624C168.41 10.3593 207.995 0 250 0C388.071 0 500 111.929 500 250C500 388.071 388.071 500 250 500C178.084 500 113.26 469.634 67.6514 421.025C82.2088 418.232 95.9917 413.891 109 408C133.733 396.333 153.1 380.7 167.1 361.1C181.1 341.5 188.1 319.567 188.1 295.3C188.1 263.567 176.433 236.967 153.1 215.5ZM51.7271 402.296C88.0424 391.081 106.2 361.016 106.2 312.1C106.2 276.167 97.5667 247.7 80.3 226.7C63.7167 206.531 38.9546 196.048 6.01367 195.249C2.07683 212.87 0 231.192 0 250C0 307.316 19.2879 360.127 51.7271 402.296ZM11.6419 174.376C27.2827 170.827 39.9021 162.369 49.5 149C62.5667 130.8 69.1 107.467 69.1 79C69.1 78.4813 69.0978 77.9651 69.0934 77.4514C43.15 104.643 23.2752 137.676 11.6419 174.376ZM464.409 156.7C454.609 148.767 444.342 144.8 433.609 144.8C424.275 144.8 413.309 148.767 400.709 156.7C388.575 164.633 372.942 178.4 353.809 198C352.875 181.667 350.075 168.833 345.409 159.5C341.209 149.7 336.542 144.8 331.409 144.8C330.942 144.8 329.309 145.267 326.509 146.2L229.209 193.8C228.275 194.267 228.042 195.667 228.509 198C229.442 200.333 230.609 201.5 232.009 201.5H233.409C247.875 194.967 259.075 191.7 267.009 191.7C274.475 191.7 279.842 195.2 283.109 202.2C286.842 208.733 288.709 219.233 288.709 233.7V365.3C288.709 383.967 286.142 396.8 281.009 403.8C275.875 410.333 266.075 413.6 251.609 413.6C250.209 413.6 249.509 415 249.509 417.8C249.509 420.6 250.209 422 251.609 422C263.742 422 273.309 421.767 280.309 421.3L321.609 420.6L378.309 421.3C387.642 421.767 400.475 422 416.809 422C418.675 422 419.609 420.6 419.609 417.8C419.609 415 418.675 413.6 416.809 413.6C393.009 413.6 376.675 410.333 367.809 403.8C358.942 396.8 354.509 383.967 354.509 365.3V214.8C365.709 203.6 373.875 196.367 379.009 193.1C384.609 189.367 389.742 187.5 394.409 187.5C398.609 187.5 402.109 188.667 404.909 191C408.175 192.867 411.909 196.133 416.109 200.8C420.775 206.4 425.209 210.6 429.409 213.4C434.075 216.2 439.909 217.6 446.909 217.6C456.709 217.6 464.642 214.567 470.709 208.5C476.775 201.967 479.809 193.8 479.809 184C479.809 173.267 474.675 164.167 464.409 156.7Z" fill="#FAFAFA"/>
</svg>
