<svg width="761" height="510" viewBox="0 0 761 510" fill="none" xmlns="http://www.w3.org/2000/svg">
<path d="M79.0588 449.352V450.703H151.361V449.352H79.0588Z" fill="white" fill-opacity="0.3"/>
<path d="M172.883 449.352V450.703H236.501V449.352H172.883Z" fill="white" fill-opacity="0.3"/>
<path d="M246.572 348.239V438.805H247.741V348.239H246.572Z" fill="white" fill-opacity="0.3"/>
<path d="M33.1101 193.931V195.282H101.358V193.931H33.1101Z" fill="white" fill-opacity="0.3"/>
<path d="M112.169 205.418V304.771H113.52V205.418H112.169Z" fill="white" fill-opacity="0.3"/>
<path d="M122.98 314.884V316.235H214.202V314.884H122.98Z" fill="white" fill-opacity="0.3"/>
<path d="M173.659 450.027C173.659 452.299 172.986 454.52 171.723 456.409C170.461 458.298 168.667 459.771 166.568 460.64C164.469 461.51 162.159 461.737 159.931 461.294C157.703 460.851 155.656 459.756 154.049 458.15C152.443 456.543 151.349 454.497 150.906 452.268C150.462 450.04 150.69 447.73 151.559 445.631C152.429 443.532 153.901 441.738 155.79 440.476C157.679 439.214 159.9 438.54 162.172 438.54C165.218 438.544 168.137 439.755 170.291 441.908C172.444 444.062 173.656 446.982 173.659 450.027ZM152.036 450.027C152.036 452.032 152.631 453.992 153.744 455.658C154.858 457.325 156.441 458.624 158.293 459.392C160.145 460.159 162.183 460.359 164.149 459.968C166.116 459.577 167.922 458.612 169.339 457.194C170.757 455.777 171.722 453.971 172.113 452.005C172.504 450.039 172.303 448.001 171.536 446.149C170.769 444.296 169.47 442.713 167.803 441.6C166.136 440.486 164.177 439.892 162.172 439.892C159.485 439.895 156.908 440.963 155.008 442.864C153.108 444.764 152.039 447.34 152.036 450.027Z" fill="white" fill-opacity="0.3"/>
<path d="M258.124 449.352C258.124 443.381 253.283 438.54 247.312 438.54C241.341 438.54 236.501 443.381 236.501 449.352C236.501 455.323 241.341 460.163 247.312 460.163C253.283 460.163 258.124 455.323 258.124 449.352Z" fill="white" fill-opacity="0.3"/>
<path d="M161.496 58.1115V170.281H162.848V58.1115H161.496Z" fill="white" fill-opacity="0.3"/>
<path d="M172.883 180.416V181.768H236.501V180.416H172.883Z" fill="white" fill-opacity="0.3"/>
<path d="M246.637 192.579V282.449H247.988V192.579H246.637Z" fill="white" fill-opacity="0.3"/>
<path d="M253 30.9676V88.8127H254.168V30.9676H253Z" fill="white" fill-opacity="0.3"/>
<path d="M172.984 181.092C172.984 175.121 168.143 170.281 162.172 170.281C156.201 170.281 151.361 175.121 151.361 181.092C151.361 187.063 156.201 191.904 162.172 191.904C168.143 191.904 172.984 187.063 172.984 181.092Z" fill="white" fill-opacity="0.3"/>
<path d="M123.656 194.606C123.656 196.878 122.983 199.099 121.72 200.988C120.458 202.877 118.664 204.35 116.565 205.219C114.466 206.089 112.156 206.316 109.928 205.873C107.7 205.43 105.653 204.335 104.046 202.729C102.44 201.122 101.346 199.076 100.903 196.847C100.459 194.619 100.687 192.309 101.556 190.21C102.426 188.111 103.898 186.317 105.787 185.055C107.676 183.793 109.897 183.119 112.169 183.119C115.215 183.123 118.134 184.334 120.288 186.487C122.442 188.641 123.653 191.561 123.656 194.606ZM102.033 194.606C102.033 196.611 102.628 198.571 103.742 200.237C104.855 201.904 106.438 203.203 108.29 203.971C110.142 204.738 112.18 204.938 114.146 204.547C116.113 204.156 117.919 203.191 119.336 201.773C120.754 200.356 121.719 198.55 122.11 196.584C122.501 194.618 122.3 192.58 121.533 190.728C120.766 188.875 119.467 187.292 117.8 186.179C116.133 185.065 114.174 184.471 112.169 184.471C109.482 184.474 106.905 185.542 105.005 187.443C103.105 189.343 102.036 191.919 102.033 194.606Z" fill="white" fill-opacity="0.3"/>
<path d="M123.656 315.56C123.656 317.832 122.983 320.053 121.72 321.942C120.458 323.831 118.664 325.303 116.565 326.172C114.466 327.042 112.156 327.269 109.928 326.826C107.7 326.383 105.653 325.289 104.046 323.682C102.44 322.076 101.346 320.029 100.903 317.801C100.459 315.572 100.687 313.263 101.556 311.164C102.426 309.065 103.898 307.271 105.787 306.008C107.676 304.746 109.897 304.072 112.169 304.072C115.215 304.076 118.134 305.287 120.288 307.441C122.442 309.594 123.653 312.514 123.656 315.56ZM102.033 315.56C102.033 317.564 102.628 319.524 103.742 321.191C104.855 322.858 106.438 324.157 108.29 324.924C110.142 325.691 112.18 325.892 114.146 325.501C116.113 325.11 117.919 324.144 119.336 322.727C120.754 321.309 121.719 319.503 122.11 317.537C122.501 315.571 122.3 313.533 121.533 311.681C120.766 309.829 119.467 308.246 117.8 307.132C116.133 306.018 114.174 305.424 112.169 305.424C109.482 305.427 106.905 306.496 105.005 308.396C103.105 310.296 102.036 312.872 102.033 315.56Z" fill="white" fill-opacity="0.3"/>
<path d="M258.8 181.768C258.8 184.04 258.126 186.261 256.864 188.15C255.601 190.039 253.807 191.511 251.708 192.38C249.609 193.25 247.3 193.477 245.071 193.034C242.843 192.591 240.796 191.497 239.19 189.89C237.583 188.284 236.489 186.237 236.046 184.009C235.603 181.78 235.83 179.471 236.7 177.372C237.569 175.273 239.041 173.479 240.93 172.216C242.82 170.954 245.04 170.281 247.312 170.281C250.358 170.284 253.278 171.495 255.431 173.649C257.585 175.802 258.796 178.722 258.8 181.768ZM237.177 181.768C237.177 183.772 237.771 185.732 238.885 187.399C239.999 189.066 241.582 190.365 243.434 191.132C245.286 191.899 247.324 192.1 249.29 191.709C251.256 191.318 253.062 190.352 254.479 188.935C255.897 187.517 256.862 185.711 257.253 183.745C257.644 181.779 257.444 179.741 256.677 177.889C255.909 176.037 254.61 174.454 252.944 173.34C251.277 172.226 249.317 171.632 247.312 171.632C244.625 171.635 242.049 172.704 240.149 174.604C238.248 176.504 237.18 179.08 237.177 181.768Z" fill="white" fill-opacity="0.3"/>
<path d="M321.578 494.482V495.983H381.525V494.482H321.578Z" fill="white" fill-opacity="0.3"/>
<path d="M392.104 306.123V482.475H393.514V306.123H392.104Z" fill="white" fill-opacity="0.3"/>
<path d="M404.798 494.482C404.798 497.005 404.095 499.471 402.777 501.569C401.46 503.667 399.587 505.302 397.397 506.268C395.206 507.234 392.795 507.486 390.47 506.994C388.144 506.502 386.008 505.287 384.331 503.503C382.654 501.718 381.512 499.445 381.05 496.971C380.587 494.496 380.825 491.931 381.732 489.6C382.639 487.269 384.176 485.276 386.148 483.874C388.119 482.473 390.437 481.724 392.809 481.724C395.987 481.728 399.035 483.073 401.282 485.465C403.53 487.857 404.794 491.099 404.798 494.482ZM382.23 494.482C382.23 496.708 382.85 498.884 384.013 500.736C385.175 502.587 386.827 504.029 388.76 504.881C390.693 505.733 392.82 505.956 394.872 505.522C396.925 505.088 398.809 504.016 400.289 502.441C401.768 500.867 402.776 498.861 403.184 496.678C403.592 494.494 403.383 492.231 402.582 490.174C401.781 488.117 400.426 486.359 398.686 485.122C396.946 483.885 394.901 483.225 392.809 483.225C390.004 483.229 387.315 484.416 385.332 486.526C383.349 488.636 382.233 491.497 382.23 494.482Z" fill="white" fill-opacity="0.3"/>
<path d="M392.104 105.757V282.109H393.514V105.757H392.104Z" fill="white" fill-opacity="0.3"/>
<path d="M279.293 314.935V316.103H394.983V314.935H279.293Z" fill="white" fill-opacity="0.3"/>
<path d="M404.798 294.116C404.798 296.639 404.095 299.106 402.777 301.204C401.46 303.302 399.587 304.937 397.397 305.902C395.206 306.868 392.795 307.121 390.47 306.628C388.144 306.136 386.008 304.921 384.331 303.137C382.654 301.353 381.512 299.08 381.05 296.605C380.587 294.13 380.825 291.565 381.732 289.234C382.639 286.903 384.176 284.91 386.148 283.509C388.119 282.107 390.437 281.359 392.809 281.359C395.987 281.362 399.035 282.708 401.282 285.099C403.53 287.491 404.794 290.734 404.798 294.116ZM382.23 294.116C382.23 296.342 382.85 298.519 384.013 300.37C385.175 302.221 386.827 303.664 388.76 304.516C390.693 305.368 392.82 305.591 394.872 305.156C396.925 304.722 398.809 303.65 400.289 302.076C401.768 300.501 402.776 298.496 403.184 296.312C403.592 294.129 403.383 291.865 402.582 289.808C401.781 287.751 400.426 285.993 398.686 284.757C396.946 283.52 394.901 282.86 392.809 282.86C390.004 282.863 387.315 284.05 385.332 286.16C383.349 288.27 382.233 291.132 382.23 294.116Z" fill="white" fill-opacity="0.3"/>
<path d="M300.421 479.473C297.631 479.473 294.904 480.354 292.585 482.003C290.265 483.652 288.457 485.996 287.39 488.738C286.322 491.481 286.043 494.499 286.587 497.41C287.131 500.321 288.475 502.996 290.447 505.095C292.42 507.194 294.933 508.623 297.669 509.202C300.405 509.781 303.241 509.484 305.819 508.348C308.396 507.212 310.599 505.288 312.149 502.82C313.699 500.352 314.526 497.45 314.526 494.482C314.515 490.505 313.025 486.694 310.383 483.882C307.74 481.07 304.158 479.485 300.421 479.473ZM300.421 483.976C301.258 483.976 302.076 484.24 302.772 484.735C303.468 485.229 304.01 485.933 304.33 486.755C304.651 487.578 304.734 488.483 304.571 489.357C304.408 490.23 304.005 491.033 303.413 491.662C302.821 492.292 302.067 492.721 301.246 492.895C300.426 493.068 299.575 492.979 298.802 492.638C298.028 492.298 297.368 491.72 296.903 490.98C296.438 490.24 296.189 489.369 296.189 488.478C296.193 487.286 296.64 486.143 297.433 485.299C298.226 484.456 299.3 483.98 300.421 483.976ZM300.421 505.652C298.749 505.644 297.105 505.202 295.63 504.364C294.155 503.527 292.895 502.319 291.958 500.846C292.026 497.844 297.6 496.192 300.421 496.192C303.242 496.192 308.816 497.844 308.884 500.846C307.946 502.318 306.685 503.525 305.211 504.362C303.736 505.2 302.092 505.642 300.421 505.652Z" fill="white" fill-opacity="0.3"/>
<path d="M265.557 100.086C265.557 102.358 264.883 104.578 263.621 106.468C262.359 108.357 260.564 109.829 258.465 110.698C256.366 111.568 254.057 111.795 251.828 111.352C249.6 110.909 247.553 109.815 245.947 108.208C244.34 106.602 243.246 104.555 242.803 102.327C242.36 100.098 242.587 97.7886 243.457 95.6896C244.326 93.5906 245.798 91.7965 247.688 90.5343C249.577 89.2721 251.798 88.5984 254.069 88.5984C257.115 88.6018 260.035 89.8131 262.188 91.9667C264.342 94.1202 265.553 97.04 265.557 100.086ZM243.934 100.086C243.934 102.09 244.528 104.05 245.642 105.717C246.756 107.384 248.339 108.683 250.191 109.45C252.043 110.217 254.081 110.418 256.047 110.027C258.013 109.635 259.819 108.67 261.237 107.253C262.654 105.835 263.619 104.029 264.01 102.063C264.402 100.097 264.201 98.0588 263.434 96.2067C262.667 94.3547 261.367 92.7717 259.701 91.658C258.034 90.5443 256.074 89.9498 254.069 89.9498C251.382 89.9528 248.806 91.0216 246.906 92.9218C245.006 94.822 243.937 97.3983 243.934 100.086Z" fill="white" fill-opacity="0.3"/>
<path d="M265.27 98.7457V99.9143L381.747 99.9143V98.7457H265.27Z" fill="white" fill-opacity="0.3"/>
<path d="M404.093 100.086C404.093 94.1147 399.041 89.2743 392.809 89.2743C386.577 89.2743 381.525 94.1147 381.525 100.086C381.525 106.057 386.577 110.897 392.809 110.897C399.041 110.897 404.093 106.057 404.093 100.086Z" fill="white" fill-opacity="0.3"/>
<path d="M60.1389 435.837C57.466 435.837 54.8531 436.63 52.6307 438.115C50.4083 439.6 48.6761 441.711 47.6532 444.18C46.6304 446.649 46.3627 449.367 46.8842 451.988C47.4056 454.61 48.6928 457.018 50.5828 458.908C52.4728 460.798 54.8808 462.085 57.5023 462.606C60.1239 463.128 62.8411 462.86 65.3106 461.837C67.78 460.815 69.8906 459.082 71.3756 456.86C72.8606 454.637 73.6532 452.025 73.6532 449.352C73.6427 445.771 72.2155 442.339 69.6834 439.807C67.1512 437.275 63.7199 435.848 60.1389 435.837ZM60.1389 439.892C60.9407 439.892 61.7246 440.129 62.3913 440.575C63.058 441.02 63.5777 441.654 63.8845 442.394C64.1914 443.135 64.2717 443.951 64.1152 444.737C63.9588 445.523 63.5727 446.246 63.0057 446.813C62.4387 447.38 61.7163 447.766 60.9298 447.922C60.1433 448.079 59.3282 447.999 58.5873 447.692C57.8465 447.385 57.2133 446.865 56.7678 446.198C56.3223 445.532 56.0846 444.748 56.0846 443.946C56.0881 442.872 56.5164 441.843 57.276 441.083C58.0355 440.324 59.0647 439.895 60.1389 439.892ZM60.1389 459.41C58.5372 459.402 56.9616 459.004 55.5486 458.25C54.1356 457.496 52.9279 456.409 52.0302 455.082C52.0952 452.379 57.436 450.892 60.1389 450.892C62.8417 450.892 68.1825 452.379 68.2475 455.082C67.3488 456.408 66.1409 457.494 64.7281 458.248C63.3153 459.002 61.7402 459.401 60.1389 459.41Z" fill="white" fill-opacity="0.3"/>
<path d="M13.5144 181.092C10.8415 181.092 8.22858 181.885 6.00616 183.37C3.78374 184.855 2.0516 186.965 1.02873 189.435C0.00585933 191.904 -0.261775 194.621 0.259679 197.243C0.781133 199.865 2.06825 202.273 3.95826 204.163C5.84828 206.053 8.25628 207.34 10.8778 207.861C13.4993 208.383 16.2166 208.115 18.686 207.092C21.1555 206.069 23.2661 204.337 24.7511 202.115C26.2361 199.892 27.0287 197.279 27.0287 194.607C27.0182 191.026 25.591 187.594 23.0589 185.062C20.5267 182.53 17.0954 181.103 13.5144 181.092ZM13.5144 185.146C14.3162 185.146 15.1 185.384 15.7668 185.83C16.4335 186.275 16.9532 186.908 17.26 187.649C17.5669 188.39 17.6472 189.205 17.4908 189.992C17.3343 190.778 16.9482 191.501 16.3812 192.068C15.8142 192.635 15.0918 193.021 14.3053 193.177C13.5188 193.334 12.7036 193.253 11.9628 192.946C11.222 192.64 10.5888 192.12 10.1433 191.453C9.69783 190.786 9.46005 190.003 9.46005 189.201C9.46364 188.127 9.89191 187.097 10.6515 186.338C11.411 185.578 12.4402 185.15 13.5144 185.146ZM13.5144 204.664C11.9128 204.657 10.3371 204.259 8.92411 203.505C7.5111 202.751 6.3034 201.664 5.40575 200.337C5.47073 197.634 10.8115 196.146 13.5144 196.146C16.2172 196.146 21.558 197.634 21.623 200.337C20.7243 201.663 19.5163 202.749 18.1036 203.503C16.6908 204.257 15.1157 204.656 13.5144 204.664Z" fill="white" fill-opacity="0.3"/>
<path d="M161.496 25.6772C158.823 25.6772 156.211 26.4698 153.988 27.9548C151.766 29.4398 150.034 31.5505 149.011 34.0199C147.988 36.4893 147.72 39.2066 148.242 41.8281C148.763 44.4496 150.05 46.8577 151.94 48.7477C153.83 50.6377 156.238 51.9248 158.86 52.4463C161.481 52.9677 164.199 52.7001 166.668 51.6772C169.137 50.6543 171.248 48.9222 172.733 46.6998C174.218 44.4773 175.011 41.8645 175.011 39.1916C175 35.6106 173.573 32.1792 171.041 29.6471C168.509 27.1149 165.077 25.6877 161.496 25.6772ZM161.496 29.7315C162.298 29.7315 163.082 29.9693 163.749 30.4148C164.415 30.8603 164.935 31.4935 165.242 32.2343C165.549 32.9752 165.629 33.7903 165.473 34.5768C165.316 35.3633 164.93 36.0857 164.363 36.6527C163.796 37.2197 163.074 37.6058 162.287 37.7622C161.501 37.9187 160.686 37.8384 159.945 37.5315C159.204 37.2247 158.571 36.705 158.125 36.0383C157.68 35.3716 157.442 34.5877 157.442 33.7859C157.446 32.7117 157.874 31.6825 158.633 30.923C159.393 30.1634 160.422 29.7351 161.496 29.7315ZM161.496 49.2494C159.895 49.2421 158.319 48.8441 156.906 48.0901C155.493 47.336 154.285 46.2486 153.388 44.9222C153.453 42.2193 158.793 40.7314 161.496 40.7314C164.199 40.7314 169.54 42.2193 169.605 44.9222C168.706 46.2476 167.498 47.3343 166.086 48.0882C164.673 48.8421 163.098 49.2407 161.496 49.2494Z" fill="white" fill-opacity="0.3"/>
<path d="M252.718 0C250.045 0 247.432 0.792601 245.21 2.27758C242.988 3.76255 241.255 5.87321 240.233 8.34263C239.21 10.8121 238.942 13.5293 239.464 16.1508C239.985 18.7724 241.272 21.1804 243.162 23.0704C245.052 24.9604 247.46 26.2476 250.082 26.769C252.703 27.2905 255.421 27.0228 257.89 26C260.359 24.9771 262.47 23.2449 263.955 21.0225C265.44 18.8001 266.233 16.1872 266.233 13.5143C266.222 9.93334 264.795 6.502 262.263 3.96984C259.731 1.43768 256.299 0.010482 252.718 0ZM252.718 4.0543C253.52 4.0543 254.304 4.29207 254.971 4.73757C255.637 5.18306 256.157 5.81626 256.464 6.55708C256.771 7.29791 256.851 8.1131 256.695 8.89955C256.538 9.68601 256.152 10.4084 255.585 10.9754C255.018 11.5424 254.296 11.9286 253.509 12.085C252.723 12.2414 251.908 12.1611 251.167 11.8543C250.426 11.5474 249.793 11.0278 249.347 10.3611C248.902 9.69434 248.664 8.91047 248.664 8.1086C248.668 7.03444 249.096 6.00529 249.855 5.24574C250.615 4.48618 251.644 4.05789 252.718 4.0543ZM252.718 23.5721C251.117 23.5648 249.541 23.1669 248.128 22.4128C246.715 21.6588 245.507 20.5714 244.61 19.2449C244.675 16.5421 250.015 15.0542 252.718 15.0542C255.421 15.0542 260.762 16.5421 260.827 19.2449C259.928 20.5704 258.72 21.657 257.307 22.4109C255.895 23.1649 254.32 23.5634 252.718 23.5721Z" fill="white" fill-opacity="0.3"/>
<path fill-rule="evenodd" clip-rule="evenodd" d="M236.161 312.164C233.688 309.843 230.333 308.43 226.095 307.925C229.072 306.815 231.342 305.277 232.906 303.309C234.521 301.341 235.328 299.147 235.328 296.725C235.328 294.884 234.905 293.297 234.059 291.964C237.816 289.985 242.095 288.865 246.637 288.865C261.564 288.865 273.666 300.966 273.666 315.894C273.666 330.821 261.564 342.922 246.637 342.922C238.862 342.922 231.853 339.639 226.922 334.384C228.496 334.082 229.986 333.613 231.393 332.976C234.067 331.714 236.161 330.024 237.674 327.905C239.188 325.786 239.945 323.415 239.945 320.791C239.945 317.36 238.683 314.484 236.161 312.164ZM225.201 332.359C229.127 331.146 231.09 327.896 231.09 322.607C231.09 318.723 230.157 315.645 228.29 313.374C226.497 311.194 223.82 310.061 220.258 309.974C219.833 311.879 219.608 313.86 219.608 315.894C219.608 322.09 221.693 327.8 225.201 332.359ZM220.867 307.717C222.558 307.334 223.922 306.419 224.96 304.974C226.373 303.006 227.079 300.484 227.079 297.406C227.079 297.35 227.079 297.294 227.078 297.239C224.273 300.178 222.125 303.75 220.867 307.717ZM269.818 305.806C268.758 304.949 267.648 304.52 266.488 304.52C265.479 304.52 264.293 304.949 262.931 305.806C261.619 306.664 259.929 308.153 257.86 310.272C257.759 308.506 257.456 307.118 256.952 306.109C256.498 305.05 255.993 304.52 255.438 304.52C255.388 304.52 255.211 304.57 254.909 304.671L244.389 309.818C244.288 309.868 244.263 310.019 244.313 310.272C244.414 310.524 244.54 310.65 244.692 310.65H244.843C246.407 309.944 247.618 309.59 248.476 309.59C249.283 309.59 249.863 309.969 250.216 310.726C250.62 311.432 250.822 312.567 250.822 314.131V328.359C250.822 330.377 250.544 331.765 249.989 332.522C249.434 333.228 248.375 333.581 246.811 333.581C246.659 333.581 246.584 333.732 246.584 334.035C246.584 334.338 246.659 334.489 246.811 334.489C248.123 334.489 249.157 334.464 249.914 334.414L254.379 334.338L260.509 334.414C261.518 334.464 262.905 334.489 264.671 334.489C264.873 334.489 264.974 334.338 264.974 334.035C264.974 333.732 264.873 333.581 264.671 333.581C262.098 333.581 260.332 333.228 259.374 332.522C258.415 331.765 257.936 330.377 257.936 328.359V312.088C259.147 310.877 260.03 310.095 260.585 309.742C261.19 309.338 261.745 309.136 262.25 309.136C262.704 309.136 263.082 309.263 263.385 309.515C263.738 309.717 264.142 310.07 264.596 310.574C265.1 311.18 265.58 311.634 266.034 311.937C266.538 312.239 267.169 312.391 267.926 312.391C268.985 312.391 269.843 312.063 270.499 311.407C271.155 310.7 271.483 309.818 271.483 308.758C271.483 307.598 270.928 306.614 269.818 305.806Z" fill="white" fill-opacity="0.3"/>
<path d="M760.783 263.952C760.783 325.511 723.549 347.005 677.619 347.005C631.689 347.005 594.455 325.511 594.455 263.952C594.455 202.394 677.619 124.082 677.619 124.082C677.619 124.082 760.783 202.394 760.783 263.952Z" fill="#F2F2F2"/>
<path d="M674.59 337.588L675.441 286.069L710.888 222.333L675.575 277.987L675.958 254.822L700.387 208.71L676.059 248.692V248.692L676.748 207.029L702.908 170.317L676.856 200.477L677.286 124.082L674.582 225.216L674.805 221.044L648.208 181.031L674.378 229.053L671.9 275.583L671.826 274.348L641.164 232.24L671.733 278.711L671.423 284.53L671.368 284.618L671.393 285.096L665.106 403.148H673.506L674.514 342.172L705.008 295.815L674.59 337.588Z" fill="#333333"/>
<path d="M305.979 365.937C305.979 382.583 295.91 388.396 283.49 388.396C271.069 388.396 261 382.583 261 365.937C261 349.29 283.49 328.112 283.49 328.112C283.49 328.112 305.979 349.29 305.979 365.937Z" fill="#F2F2F2"/>
<path d="M282.671 385.85L282.901 371.918L292.486 354.682L282.937 369.732L283.04 363.468L289.647 350.997L283.068 361.81L283.254 350.543L290.328 340.616L283.283 348.771L283.4 328.112L282.669 355.461L282.728 354.333L275.536 343.513L282.613 356.499L281.943 369.082L281.923 368.748L273.632 357.361L281.898 369.928L281.814 371.501L281.799 371.525L281.806 371.654L280.105 403.579H282.377L282.65 387.089L290.896 374.553L282.671 385.85Z" fill="#333333"/>
<path d="M264.17 403.636H716.935" stroke="#333333" stroke-width="2" stroke-miterlimit="10"/>
<path d="M717.176 388.658C717.176 399.918 710.366 403.849 701.965 403.849C701.77 403.849 701.576 403.847 701.382 403.843C700.992 403.835 700.607 403.816 700.226 403.791C692.644 403.263 686.753 399.13 686.753 388.658C686.753 377.821 700.843 364.146 701.902 363.134L701.903 363.133C701.944 363.093 701.965 363.074 701.965 363.074C701.965 363.074 717.176 377.398 717.176 388.658Z" fill="#6C63FF"/>
<path d="M701.41 402.127L706.974 394.486L701.396 402.966L701.381 403.843C700.992 403.834 700.607 403.816 700.226 403.791L700.825 392.526L700.821 392.438L700.831 392.422L700.887 391.358L695.296 382.857L700.905 390.56L700.918 390.786L701.371 382.274L696.584 373.491L701.43 380.78L701.901 363.134L701.903 363.074V363.133L701.824 377.048L706.59 371.531L701.805 378.246L701.679 385.867L706.128 378.553L701.66 386.988L701.59 391.225L708.05 381.046L701.566 392.703L701.41 402.127Z" fill="#333333"/>
<path d="M554.988 131.731H552.067C551.422 131.731 550.899 132.245 550.899 132.88V173.189C550.899 173.823 551.422 174.337 552.067 174.337H554.988C555.633 174.337 556.157 173.823 556.157 173.189V132.88C556.157 132.245 555.633 131.731 554.988 131.731Z" fill="#3F3D56"/>
<path d="M378.291 98.3528H376.874C376.45 98.3528 376.107 98.6901 376.107 99.1061V111.626C376.107 112.042 376.45 112.379 376.874 112.379H378.291C378.715 112.379 379.058 112.042 379.058 111.626V99.1061C379.058 98.6901 378.715 98.3528 378.291 98.3528Z" fill="#3F3D56"/>
<path d="M378.462 124.032H376.864C376.387 124.032 376 124.413 376 124.882V147.597C376 148.066 376.387 148.447 376.864 148.447H378.462C378.939 148.447 379.326 148.066 379.326 147.597V124.882C379.326 124.413 378.939 124.032 378.462 124.032Z" fill="#3F3D56"/>
<path d="M378.397 156.989H376.876C376.422 156.989 376.053 157.351 376.053 157.797V180.806C376.053 181.252 376.422 181.614 376.876 181.614H378.397C378.851 181.614 379.219 181.252 379.219 180.806V157.797C379.219 157.351 378.851 156.989 378.397 156.989Z" fill="#3F3D56"/>
<path d="M535.537 52H395.978C385.926 52 377.778 60.0084 377.778 69.8873V385.592C377.778 395.471 385.926 403.479 395.978 403.479H535.537C545.589 403.479 553.737 395.471 553.737 385.592V69.8873C553.737 60.0084 545.589 52 535.537 52Z" fill="#333333"/>
<path d="M472.06 62.4962H450.08C449.364 62.4962 448.784 63.0665 448.784 63.77V66.1263C448.784 66.8298 449.364 67.4001 450.08 67.4001H472.06C472.776 67.4001 473.356 66.8298 473.356 66.1263V63.77C473.356 63.0665 472.776 62.4962 472.06 62.4962Z" fill="#E6E8EC"/>
<path d="M479.901 67.7297C481.464 67.7297 482.731 66.4844 482.731 64.9482C482.731 63.412 481.464 62.1666 479.901 62.1666C478.338 62.1666 477.071 63.412 477.071 64.9482C477.071 66.4844 478.338 67.7297 479.901 67.7297Z" fill="#E6E8EC"/>
<path d="M542.871 74.8916V380.591C542.87 384.233 541.397 387.726 538.776 390.301C536.156 392.876 532.601 394.322 528.895 394.322H402.621C398.915 394.322 395.361 392.876 392.74 390.301C390.119 387.726 388.646 384.233 388.645 380.591V74.8916C388.645 73.0877 389.006 71.3015 389.709 69.6349C390.411 67.9683 391.44 66.454 392.738 65.1785C394.036 63.9029 395.577 62.8912 397.272 62.2009C398.968 61.5107 400.785 61.1555 402.621 61.1556H421.517V63.541C421.517 66.5405 422.73 69.4169 424.888 71.5378C427.046 73.6587 429.973 74.8507 433.024 74.8515H497.243C500.295 74.8515 503.222 73.6599 505.38 71.5387C507.538 69.4176 508.75 66.5407 508.75 63.541V61.1556H528.895C530.731 61.1555 532.548 61.5107 534.244 62.2009C535.939 62.8912 537.48 63.9029 538.778 65.1785C540.076 66.454 541.105 67.9683 541.807 69.6349C542.51 71.3015 542.871 73.0877 542.871 74.8916Z" fill="white"/>
<path d="M542.957 132.024H388.467V306.417H542.957V132.024Z" fill="#F2F2F2"/>
<path d="M399.684 330.548L398.87 329.827C395.982 327.221 394.075 325.529 394.075 323.422C394.068 323.021 394.143 322.623 394.295 322.25C394.447 321.878 394.674 321.54 394.962 321.256C395.249 320.971 395.592 320.747 395.97 320.595C396.347 320.443 396.752 320.367 397.16 320.372C397.641 320.374 398.117 320.48 398.552 320.681C398.988 320.882 399.374 321.174 399.684 321.536C399.993 321.174 400.379 320.882 400.815 320.681C401.251 320.48 401.726 320.374 402.208 320.372C402.616 320.367 403.02 320.443 403.398 320.595C403.776 320.747 404.118 320.971 404.406 321.256C404.694 321.54 404.92 321.878 405.072 322.25C405.225 322.623 405.299 323.021 405.292 323.422C405.292 325.529 403.385 327.221 400.497 329.827L399.684 330.548Z" fill="#FF6584"/>
<path d="M429.171 327.882L430.743 328.323C431.024 327.523 431.499 326.802 432.126 326.223C432.754 325.643 433.516 325.223 434.346 324.997C435.176 324.772 436.049 324.749 436.891 324.93C437.732 325.111 438.516 325.49 439.174 326.036L436.774 328.323H442.768V322.596L440.352 324.872C439.488 324.128 438.45 323.605 437.331 323.352C436.211 323.099 435.046 323.122 433.938 323.42C432.83 323.719 431.814 324.282 430.982 325.061C430.151 325.84 429.528 326.809 429.171 327.882L429.171 327.882Z" fill="#F2F2F2"/>
<path d="M398.664 118.995C402.606 118.995 405.802 115.853 405.802 111.979C405.802 108.104 402.606 104.963 398.664 104.963C394.722 104.963 391.526 108.104 391.526 111.979C391.526 115.853 394.722 118.995 398.664 118.995Z" fill="#6C63FF"/>
<path d="M477.694 107.97H411.411V115.988H477.694V107.97Z" fill="#6C63FF"/>
<path d="M460.358 342.498H394.075V350.516H460.358V342.498Z" fill="#F2F2F2"/>
<path d="M534.29 359.978H394.075V367.996H534.29V359.978Z" fill="#F2F2F2"/>
<path d="M422.628 330.041L420.872 327.02C421.292 326.029 421.333 324.922 420.989 323.903C420.645 322.884 419.938 322.021 418.998 321.473C418.058 320.926 416.949 320.73 415.874 320.922C414.799 321.114 413.831 321.681 413.148 322.519C412.464 323.357 412.112 324.409 412.155 325.482C412.198 326.555 412.633 327.577 413.381 328.359C414.13 329.141 415.14 329.632 416.227 329.741C417.314 329.849 418.404 329.568 419.297 328.95L422.628 330.041Z" fill="#F2F2F2"/>
<path d="M452.64 172.924H452.64C450.016 173.452 447.524 174.482 445.305 175.957C443.087 177.431 441.185 179.321 439.71 181.518C438.234 183.714 437.213 186.175 436.705 188.76C436.197 191.344 436.212 194.002 436.749 196.581L440.958 216.797L445.671 215.849L446.003 213.706L446.99 215.583L475.642 209.821L475.974 207.678L476.961 209.555L480.919 208.759L476.71 188.543C476.173 185.964 475.125 183.515 473.624 181.334C472.124 179.153 470.202 177.285 467.967 175.834C465.731 174.384 463.228 173.38 460.598 172.881C457.968 172.382 455.264 172.396 452.64 172.924Z" fill="#2F2E41"/>
<path d="M488.146 234.946L512.62 249.479L509.561 256.494L486.616 245.971L488.146 234.946Z" fill="#9F616A"/>
<path d="M457.044 251.483C457.044 251.483 407.587 251.483 399.429 264.011C391.271 276.54 397.899 294.079 423.393 298.088C448.886 302.097 526.387 304.102 532.505 289.068C538.623 274.034 534.035 265.515 534.035 265.515C534.035 265.515 507.521 247.474 457.044 251.483Z" fill="#6C63FF"/>
<path d="M500.893 263.51L527.916 273.533C527.916 273.533 539.133 265.515 533.525 256.495C527.916 247.474 502.423 195.357 502.423 195.357C502.423 195.357 495.285 185.334 504.462 179.822C513.64 174.309 517.209 183.33 517.209 183.33C517.209 183.33 516.699 185.334 520.268 183.831C523.837 182.327 530.466 187.339 526.897 195.357C523.327 203.375 520.778 205.379 528.426 204.878C531.188 204.697 533.617 202.752 535.594 200.34C539.383 195.717 537.692 191.994 537.405 186.064C536.914 175.906 536.111 169.283 533.525 165.289C529.956 159.776 524.857 155.266 511.6 157.772C498.344 160.278 478.969 172.806 483.558 190.847C488.146 208.887 498.344 228.932 498.344 228.932C498.344 228.932 505.482 256.996 500.893 263.51Z" fill="#6C63FF"/>
<path opacity="0.1" d="M500.893 263.51C496.488 264.703 490.956 265.284 485.001 265.465C474.609 265.78 462.913 264.878 453.572 263.856C443.482 262.749 436.14 261.506 436.14 261.506C439.551 258.379 444.792 257.141 450.951 256.69C458.599 256.129 467.665 256.77 476.419 256.495C479.647 256.384 482.877 256.622 486.051 257.206C495.708 259.015 500.893 263.51 500.893 263.51Z" fill="black"/>
<path d="M456.789 209.639C464.674 209.639 471.066 203.357 471.066 195.607C471.066 187.858 464.674 181.576 456.789 181.576C448.905 181.576 442.513 187.858 442.513 195.607C442.513 203.357 448.905 209.639 456.789 209.639Z" fill="#9F616A"/>
<path d="M455.005 206.883C455.005 206.883 457.554 216.404 455.005 216.905C452.455 217.406 446.337 219.912 446.337 219.912L453.985 222.919L468.261 235.948L480.498 241.962L486.617 239.957V228.932L477.439 214.901C477.439 214.901 471.321 216.905 469.791 210.391C468.261 203.876 465.202 201.37 465.202 201.37L455.005 206.883Z" fill="#9F616A"/>
<path d="M451.436 220.413H445.317C445.317 220.413 434.61 223.921 428.492 231.939C422.373 239.957 412.686 247.975 412.686 247.975C412.686 247.975 406.057 256.996 409.626 269.524C413.195 282.052 418.294 291.073 422.883 288.567C427.472 286.061 416.255 268.021 416.255 268.021L419.314 256.996C419.314 256.996 435.12 238.955 441.748 239.456C448.377 239.957 448.886 245.47 448.886 245.47L463.163 249.479L467.752 239.957L465.202 229.935L451.436 220.413Z" fill="#9F616A"/>
<path d="M488.146 251.984C487.182 253.61 486.476 255.371 486.051 257.206C485.414 259.916 485.062 262.684 485.001 265.465C474.609 265.78 462.913 264.878 453.572 263.856C452.746 261.691 451.839 259.201 450.951 256.69C448.56 249.905 446.337 242.979 446.337 241.962C446.337 239.957 457.044 243.465 459.594 242.964C462.143 242.463 463.163 234.445 459.594 230.436C456.025 226.427 445.572 219.661 445.572 219.661L449.141 218.659C449.141 218.659 457.044 224.422 473.36 233.944C489.676 243.465 483.048 228.431 483.048 228.431L473.615 214.149H477.694C477.694 214.149 485.597 227.429 489.676 233.443C493.755 239.456 492.225 245.47 488.146 251.984Z" fill="#3F3D56"/>
<path d="M466.892 176.677L441.034 181.878L444.281 197.473L470.139 192.272L466.892 176.677Z" fill="#2F2E41"/>
<path d="M522.563 178.569C526.787 178.569 530.211 175.203 530.211 171.052C530.211 166.9 526.787 163.535 522.563 163.535C518.339 163.535 514.915 166.9 514.915 171.052C514.915 175.203 518.339 178.569 522.563 178.569Z" fill="#3F3D56"/>
<path d="M522.563 175.061C524.815 175.061 526.642 173.266 526.642 171.052C526.642 168.838 524.815 167.043 522.563 167.043C520.31 167.043 518.484 168.838 518.484 171.052C518.484 173.266 520.31 175.061 522.563 175.061Z" fill="white"/>
<path d="M298.086 257.82L297.565 261.775C297.388 263.113 297.212 264.453 297.117 265.8C296.801 270.28 297.39 274.778 297.235 279.266C297.115 282.721 296.555 286.174 296.826 289.621C297.065 292.67 297.948 295.63 298.826 298.564L300.081 302.757C300.091 302.883 300.131 303.004 300.197 303.112C300.262 303.22 300.352 303.311 300.46 303.379C300.568 303.447 300.69 303.49 300.817 303.504C300.944 303.518 301.073 303.503 301.193 303.461L306.746 302.966C306.391 301.363 305.995 299.693 305.804 298.063C305.653 296.775 305.562 295.48 305.467 294.186C305.172 290.153 304.837 286.122 304.502 282.092L303.915 275.012C303.66 271.94 303.402 268.851 302.615 265.868C301.831 262.849 300.272 260.078 298.086 257.82Z" fill="#6C63FF"/>
<path opacity="0.1" d="M298.086 257.82L297.565 261.775C297.388 263.113 297.212 264.453 297.117 265.8C296.801 270.28 297.39 274.778 297.235 279.266C297.115 282.721 296.555 286.174 296.826 289.621C297.065 292.67 297.948 295.63 298.826 298.564L300.081 302.757C300.091 302.883 300.131 303.004 300.197 303.112C300.262 303.22 300.352 303.311 300.46 303.379C300.568 303.447 300.69 303.49 300.817 303.504C300.944 303.518 301.073 303.503 301.193 303.461L306.746 302.966C306.391 301.363 305.995 299.693 305.804 298.063C305.653 296.775 305.562 295.48 305.467 294.186C305.172 290.153 304.837 286.122 304.502 282.092L303.915 275.012C303.66 271.94 303.402 268.851 302.615 265.868C301.831 262.849 300.272 260.078 298.086 257.82Z" fill="black"/>
<path d="M307.979 393.42C307.652 394.049 307.367 394.7 307.127 395.366C306.489 397.206 306.393 399.178 306.302 401.119C306.259 401.494 306.294 401.873 306.406 402.234C306.679 402.932 307.464 403.285 308.199 403.479C311.275 404.292 314.518 403.527 317.69 403.248C320.804 402.974 323.976 403.172 327.026 402.497C327.476 402.414 327.912 402.265 328.318 402.056C329.092 401.562 329.668 400.822 329.952 399.959C330.045 399.739 330.107 399.507 330.137 399.27C330.238 398.249 329.332 397.361 328.346 397.026C327.359 396.69 326.286 396.745 325.247 396.64C323.111 396.425 321.106 395.523 319.544 394.074C317.981 392.626 316.948 390.711 316.604 388.627C316.567 388.404 311.468 388.536 310.931 388.825C310.303 389.164 309.923 390.01 309.569 390.581C308.997 391.504 308.467 392.45 307.979 393.42Z" fill="#3F3D56"/>
<path opacity="0.1" d="M307.979 393.42C307.652 394.049 307.367 394.7 307.127 395.366C306.489 397.206 306.393 399.178 306.302 401.119C306.259 401.494 306.294 401.873 306.406 402.234C306.679 402.932 307.464 403.285 308.199 403.479C311.275 404.292 314.518 403.527 317.69 403.248C320.804 402.974 323.976 403.172 327.026 402.497C327.476 402.414 327.912 402.265 328.318 402.056C329.092 401.562 329.668 400.822 329.952 399.959C330.045 399.739 330.107 399.507 330.137 399.27C330.238 398.249 329.332 397.361 328.346 397.026C327.359 396.69 326.286 396.745 325.247 396.64C323.111 396.425 321.106 395.523 319.544 394.074C317.981 392.626 316.948 390.711 316.604 388.627C316.567 388.404 311.468 388.536 310.931 388.825C310.303 389.164 309.923 390.01 309.569 390.581C308.997 391.504 308.467 392.45 307.979 393.42Z" fill="#0D0D0E"/>
<path d="M316.433 393.895C316.106 394.525 315.822 395.175 315.582 395.841C314.944 397.681 314.848 399.653 314.757 401.594C314.713 401.969 314.749 402.348 314.861 402.709C315.133 403.407 315.919 403.76 316.653 403.954C319.729 404.767 322.972 404.002 326.145 403.723C329.258 403.45 332.43 403.648 335.48 402.973C335.931 402.889 336.367 402.74 336.773 402.531C337.546 402.037 338.123 401.297 338.406 400.435C338.499 400.214 338.562 399.982 338.592 399.745C338.693 398.724 337.787 397.836 336.8 397.501C335.813 397.165 334.741 397.22 333.702 397.115C331.565 396.9 329.561 395.998 327.998 394.549C326.436 393.101 325.403 391.186 325.059 389.103C325.022 388.88 319.923 389.011 319.386 389.3C318.758 389.639 318.378 390.485 318.024 391.056C317.452 391.979 316.922 392.925 316.433 393.895Z" fill="#3F3D56"/>
<path d="M338.484 344.426C338.55 354.49 335.572 364.326 332.08 373.786C330.697 377.531 329.23 381.243 327.678 384.923C326.759 387.103 325.724 389.522 326.708 391.676C323.875 390.616 320.974 389.99 317.983 390.479C319.122 388.198 319.015 385.543 319.066 383.004C319.165 379.557 319.542 376.122 320.195 372.734C321.197 367.577 322.916 362.581 325.303 357.886C325.787 356.895 326.121 355.841 326.293 354.756C326.603 352.342 326.461 349.893 325.872 347.53C324.781 342.295 322.709 337.306 319.763 332.815C319.753 332.915 319.744 333.016 319.733 333.116C319.554 334.613 319.298 336.099 318.964 337.57C318.295 340.687 317.516 343.806 317.632 346.939C317.758 350.263 317.548 353.591 317.007 356.874C316.835 358.164 316.493 359.426 315.99 360.629C315.663 361.35 315.237 362.027 314.979 362.773C314.724 363.636 314.591 364.529 314.583 365.427C314.202 373.005 315.493 382.545 317.069 389.974C314.413 389.854 310.858 390.602 308.516 391.841C306.611 386.558 305.398 379.054 304.49 373.491C303.463 366.918 303.672 360.216 305.106 353.718C305.553 351.55 305.72 349.335 305.604 347.126C305.401 342.725 304.301 338.421 303.207 334.15C302.651 331.982 302.095 329.814 301.539 327.645C300.748 324.555 299.956 321.465 299.162 318.375C298.636 316.32 298.104 314.22 298.27 312.106C298.386 310.947 298.634 309.804 299.008 308.699C300.192 304.939 301.961 301.381 304.254 298.153C313.382 298.657 322.622 297.817 331.738 297.129C332.181 297.042 332.641 297.119 333.03 297.345C333.34 297.655 333.524 298.065 333.549 298.499C334.691 304.856 335.833 311.214 336.974 317.572C337.53 320.227 337.856 322.923 337.949 325.632C337.966 328.332 337.521 331.022 337.624 333.72C337.763 337.354 338.462 340.79 338.484 344.426Z" fill="#333333"/>
<path opacity="0.1" d="M319.733 333.116C319.554 334.612 319.298 336.099 318.964 337.57C316.978 334.194 314.838 330.904 313.01 327.443C312.539 326.551 312.09 325.648 311.639 324.747C311.19 323.846 310.741 322.945 310.292 322.044C310.04 321.538 309.786 321.03 309.559 320.511C309.188 319.764 308.903 318.978 308.71 318.168C309.375 318.048 311.013 319.81 311.506 320.269C312.515 321.248 313.469 322.281 314.361 323.364C315.441 324.566 316.433 325.841 317.328 327.181C318.472 329.008 319.285 331.016 319.733 333.116Z" fill="black"/>
<path d="M327.34 240.482C327.34 240.482 322.267 248.422 323.206 250.084C324.146 251.746 307.237 248.607 307.237 248.607C307.237 248.607 316.443 240.667 315.504 237.343C314.564 234.019 327.34 240.482 327.34 240.482Z" fill="#EFB7B9"/>
<path d="M322.831 242.883C329.16 242.883 334.291 237.84 334.291 231.619C334.291 225.398 329.16 220.355 322.831 220.355C316.501 220.355 311.37 225.398 311.37 231.619C311.37 237.84 316.501 242.883 322.831 242.883Z" fill="#EFB7B9"/>
<path d="M327.51 248.808C326.283 247.13 324.618 245.81 322.69 244.986C321.58 244.595 320.433 244.317 319.266 244.155L314.694 243.365C313.573 243.172 312.374 242.987 311.334 243.441C310.803 243.705 310.319 244.052 309.902 244.47C308.313 245.916 306.773 247.507 304.78 248.342C304.235 248.571 303.664 248.738 303.12 248.968C300.89 249.912 299.224 251.882 298.277 254.078C297.283 256.383 297.254 258.881 297.333 261.382C297.33 262.245 297.417 263.106 297.59 263.953C297.821 264.758 298.111 265.546 298.458 266.31C299.089 267.941 299.618 269.61 300.041 271.305C301.226 275.762 302.211 280.264 302.996 284.811C303.064 285.465 303.26 286.099 303.572 286.68C304.013 287.259 304.547 287.763 305.152 288.173C305.632 288.563 306.075 288.995 306.477 289.463C306.673 289.662 306.817 289.906 306.896 290.172C307.044 290.845 306.44 291.421 305.949 291.911C304.93 292.933 304.193 294.194 303.809 295.574C303.569 295.857 303.448 296.219 303.469 296.586C303.567 296.841 303.603 297.114 303.575 297.385C303.481 297.632 303.334 297.857 303.145 298.044C302.926 298.323 302.77 298.646 302.689 298.989C302.607 299.332 302.6 299.689 302.669 300.035C306.221 301.552 310.023 302.427 313.891 302.617C314.839 302.66 315.79 302.661 316.731 302.775C317.402 302.856 318.065 302.995 318.737 303.072C319.714 303.162 320.697 303.187 321.677 303.146C326.778 303.046 332.029 302.916 336.713 300.929C337.154 298.568 336.204 296.162 335.607 293.834C334.659 290.131 334.42 286.291 333.714 282.537C333.231 279.967 332.53 277.438 332.128 274.855C331.726 272.272 331.631 269.594 332.354 267.079C332.994 264.85 333.187 262.581 333.851 260.359C334.515 258.138 334.98 255.729 334.231 253.533C333.302 250.811 330.427 248.657 327.51 248.808Z" fill="#6C63FF"/>
<path d="M333.138 225.647C333.695 223.647 332.599 221.565 331.288 219.941C329.879 218.195 328.059 216.62 325.836 216.181C324.03 215.825 322.158 216.255 320.321 216.112C318.693 215.985 317.134 215.411 315.514 215.205C314.049 215.051 312.569 215.106 311.12 215.369C309.743 215.567 308.397 215.936 307.114 216.469C302.236 218.593 299.378 223.84 298.714 229.044C298.051 234.248 299.214 239.491 300.37 244.611L301.415 249.239C302.503 254.056 303.594 258.898 303.885 263.824C304.177 268.75 303.633 273.807 301.572 278.306C308.238 274.787 313.403 269.039 316.132 262.103C316.874 260.198 317.422 258.222 318.244 256.349C318.95 254.737 319.855 253.211 320.481 251.568C321.187 249.711 321.526 247.739 321.48 245.758C321.444 244.269 321.191 242.786 321.235 241.298C321.279 239.809 321.664 238.255 322.712 237.178C323.642 236.221 324.965 235.761 326.165 235.159C328.051 234.207 329.699 232.855 330.99 231.201C331.745 230.234 331.785 229.821 331.977 228.705C332.164 227.62 332.844 226.701 333.138 225.647Z" fill="#2F2E41"/>
<path d="M333.154 310.267C333.27 311.425 333.056 312.612 333.313 313.748C333.507 314.602 333.957 315.377 334.221 316.212C334.484 317.18 334.619 318.177 334.624 319.178C334.662 320.018 334.596 321.039 333.84 321.433C333.509 321.606 333.11 321.609 332.765 321.754C332.419 321.899 332.123 322.311 332.321 322.625C332.487 322.889 332.865 322.892 333.174 322.954C333.484 323.017 333.824 323.332 333.645 323.587C333.572 323.671 333.476 323.731 333.369 323.76C333.052 323.853 332.753 323.995 332.481 324.18C332.346 324.274 332.241 324.403 332.176 324.553C332.112 324.703 332.091 324.867 332.116 325.028C332.134 325.105 332.171 325.177 332.222 325.239C332.273 325.301 332.338 325.35 332.411 325.383C332.485 325.416 332.565 325.433 332.646 325.431C332.727 325.429 332.806 325.409 332.878 325.373C332.739 325.664 332.664 325.98 332.656 326.302C333.865 326.813 335.226 326.145 336.364 325.494C336.858 325.225 337.334 324.927 337.791 324.602C338.708 323.906 339.437 323.001 339.917 321.965C340.396 320.929 340.611 319.794 340.542 318.658C340.489 318.086 340.4 317.518 340.274 316.957C340.098 315.982 339.865 315.017 339.577 314.068C339.252 313.067 338.804 312.109 338.421 311.128C337.604 309.038 337.077 306.849 336.342 304.73C336.331 304.629 336.299 304.531 336.248 304.442C336.197 304.354 336.128 304.276 336.046 304.215C335.963 304.154 335.868 304.11 335.768 304.086C335.667 304.063 335.562 304.06 335.46 304.078C334.631 304.036 333.8 304.111 332.993 304.301C332.505 304.441 331.704 304.749 331.485 305.252C331.288 305.704 331.619 306.109 331.828 306.497C332.514 307.658 332.965 308.938 333.154 310.267Z" fill="#EFB7B9"/>
<path opacity="0.1" d="M332.378 253.679C332.623 253.924 332.828 254.204 332.985 254.51C334.614 257.418 334.634 260.9 334.711 264.219C334.797 267.955 335.005 271.687 335.213 275.419L335.835 286.578C335.895 287.644 335.954 288.712 336.106 289.769C336.838 289.951 336.869 290.88 336.784 291.617C336.26 296.171 334.956 300.859 336.321 305.241C336.374 305.467 336.483 305.676 336.641 305.849C335.953 305.635 335.216 305.625 334.522 305.82C333.842 305.961 333.188 306.206 332.509 306.358C331.647 306.551 330.669 306.634 330.08 307.283C329.415 305.314 328.885 303.303 328.495 301.264C328.171 299.411 328.083 297.484 327.315 295.762C327.005 295.067 326.591 294.422 326.212 293.76C324.223 290.277 323.249 286.337 322.297 282.454C321.869 280.613 321.767 278.713 321.994 276.838C322.129 275.982 322.208 275.119 322.231 274.253C322.171 273.34 322.049 272.432 321.867 271.534C321.465 268.901 321.653 266.214 322.419 263.661C323.131 261.289 323.757 258.794 325.248 256.802C326.739 254.811 329.863 253.713 332.378 253.679Z" fill="black"/>
<path d="M332.942 253.31C333.187 253.554 333.391 253.834 333.549 254.14C335.177 257.049 335.198 260.53 335.275 263.849C335.361 267.585 335.569 271.318 335.777 275.049L336.399 286.209C336.458 287.275 336.518 288.342 336.67 289.4C337.402 289.581 337.432 290.511 337.347 291.248C336.824 295.802 335.52 300.49 336.885 304.872C336.937 305.098 337.047 305.307 337.204 305.479C336.516 305.266 335.78 305.256 335.086 305.451C334.405 305.592 333.751 305.837 333.073 305.988C332.21 306.181 331.232 306.264 330.644 306.914C329.978 304.944 329.449 302.933 329.058 300.894C328.735 299.041 328.647 297.114 327.879 295.392C327.569 294.697 327.154 294.053 326.776 293.391C324.786 289.908 323.812 285.968 322.86 282.085C322.433 280.244 322.33 278.344 322.557 276.468C322.693 275.613 322.772 274.749 322.795 273.884C322.735 272.97 322.613 272.062 322.431 271.165C322.029 268.532 322.217 265.845 322.982 263.291C323.695 260.92 324.32 258.425 325.811 256.433C327.302 254.441 330.426 253.344 332.942 253.31Z" fill="#6C63FF"/>
<path opacity="0.1" d="M331.288 219.941C329.879 218.195 328.059 216.62 325.836 216.181C324.03 215.825 322.158 216.255 320.321 216.112C318.693 215.985 317.133 215.411 315.514 215.205C314.049 215.051 312.569 215.106 311.12 215.369C309.743 215.567 308.397 215.936 307.114 216.469C306.422 216.772 305.76 217.14 305.14 217.569C306.283 217.144 307.469 216.84 308.678 216.662C310.126 216.398 311.607 216.343 313.072 216.498C314.691 216.704 316.251 217.278 317.879 217.404C319.716 217.548 321.587 217.117 323.394 217.474C325.616 217.912 327.437 219.487 328.846 221.233C330.157 222.858 331.253 224.94 330.695 226.94C330.402 227.993 329.722 228.913 329.535 229.998C329.343 231.114 329.303 231.527 328.547 232.494C327.575 233.738 326.399 234.814 325.068 235.679C325.435 235.507 325.805 235.339 326.165 235.159C328.051 234.207 329.699 232.855 330.99 231.201C331.745 230.234 331.785 229.821 331.977 228.705C332.164 227.62 332.844 226.701 333.138 225.647C333.695 223.647 332.599 221.565 331.288 219.941Z" fill="black"/>
<path opacity="0.1" d="M322.712 237.178C322.909 236.978 323.123 236.795 323.352 236.631C322.257 237.152 321.105 237.611 320.269 238.471C319.222 239.547 318.837 241.101 318.792 242.59C318.748 244.079 319.002 245.561 319.037 247.05C319.084 249.032 318.745 251.004 318.038 252.86C317.412 254.503 316.508 256.03 315.801 257.641C314.98 259.514 314.431 261.491 313.69 263.396C311.322 269.408 307.117 274.551 301.653 278.119C301.625 278.181 301.6 278.244 301.572 278.306C308.238 274.787 313.403 269.039 316.132 262.103C316.874 260.198 317.422 258.222 318.244 256.349C318.95 254.737 319.855 253.211 320.481 251.567C321.187 249.711 321.526 247.739 321.48 245.758C321.444 244.269 321.191 242.786 321.235 241.298C321.279 239.809 321.664 238.255 322.712 237.178Z" fill="black"/>
<path d="M574.4 402.734C573.854 403.381 572.92 403.511 572.075 403.597C570.983 403.752 569.875 403.773 568.778 403.659C567.475 403.468 566.694 404.196 565.503 403.636C564.783 403.297 563.674 403.975 562.954 403.636C561.966 403.172 558.557 403.076 557.956 402.169C557.354 401.263 557.416 399.83 558.366 399.295C558.636 399.17 558.914 399.063 559.199 398.975C560.79 398.353 564.013 393.658 565.706 393.417C566.546 393.379 567.381 393.572 568.115 393.975C569.784 394.703 572.732 395.279 573.46 397.127C574.027 398.567 575.58 401.326 574.4 402.734Z" fill="#3A384F"/>
<path d="M586.392 402.362C586.937 403.01 587.871 403.14 588.717 403.225C589.808 403.381 590.916 403.402 592.013 403.287C593.317 403.096 594.905 404.196 596.095 403.636C596.816 403.297 597.925 403.474 598.645 403.135C599.632 402.671 604.274 403.706 604.875 402.8C605.476 401.893 605.415 400.461 604.465 399.926C604.195 399.8 603.917 399.693 603.632 399.606C602.041 398.984 596.778 393.286 595.085 393.046C594.245 393.007 593.411 393.2 592.677 393.603C591.007 394.332 588.06 394.907 587.331 396.755C586.764 398.195 585.211 400.955 586.392 402.362Z" fill="#3F3D56"/>
<path d="M591.664 300.034C592.185 301.019 592.641 302.037 593.028 303.08C597.656 315.115 598.044 328.266 598.235 341.131C598.219 343.222 598.341 345.313 598.599 347.389C598.793 348.706 599.099 350.037 598.902 351.353C598.731 352.491 598.186 353.613 598.403 354.743C598.501 355.25 598.748 355.72 598.845 356.228C598.92 356.783 598.905 357.348 598.799 357.899L598.179 362.437C597.825 365.022 597.009 367.512 597.054 370.12C597.084 371.899 597.114 373.681 597.316 375.449C597.521 377.244 597.902 379.026 597.921 380.832C597.936 382.185 597.747 383.531 597.626 384.878C597.454 386.781 597.415 388.694 597.509 390.602C597.582 392.072 597.753 393.599 598.546 394.848C597.658 396.1 596.778 397.223 595.354 397.836C592.463 399.082 589.144 398.66 586.019 398.214C586.193 397.647 586.461 397.005 586.211 396.466C586.064 396.205 585.883 395.964 585.674 395.748C584.992 394.795 584.519 393.713 584.284 392.57C583.905 391.215 583.527 389.757 584.304 388.457C584.571 387.994 584.689 387.462 584.642 386.931C583.995 378.4 582.064 369.573 583.842 361.2C584.032 360.306 584.258 359.418 584.365 358.511C584.46 357.206 584.476 355.897 584.412 354.591L584.375 352.772C584.282 350.831 584.362 348.842 583.966 346.923C583.683 345.548 583.153 344.167 583.806 342.766C583.948 342.444 584.014 342.095 583.997 341.745C583.98 341.395 583.882 341.054 583.709 340.747C582.337 338.383 581.232 335.878 580.417 333.277C580.248 332.55 580.016 331.839 579.724 331.151C579.326 330.426 578.868 329.733 578.355 329.081C576.807 326.874 575.881 324.313 574.972 321.785C575.068 321.553 574.994 321.231 574.741 321.264C574.491 321.327 574.277 321.484 574.145 321.702C572.899 323.347 572.795 325.542 572.739 327.592C572.644 329.497 572.677 331.406 572.838 333.307C572.944 334.302 573.121 335.29 573.212 336.287C573.331 338.148 573.301 340.015 573.122 341.871L572.486 351.003C572.4 351.758 572.446 352.522 572.623 353.262C573.031 354.542 573.23 355.877 573.212 357.218C573.045 362.735 573.53 368.252 574.658 373.658C574.969 375.151 575.328 376.635 575.591 378.136C576.212 381.674 576.297 385.279 576.381 388.869C576.432 391.076 576.469 393.363 575.584 395.392C575.239 396.017 574.985 396.688 574.831 397.384C574.828 397.742 574.779 398.099 574.686 398.446C574.427 399.103 573.647 399.383 572.947 399.533C571.631 399.814 570.28 399.909 568.937 399.813C568.621 399.808 568.31 399.74 568.022 399.614C567.521 399.358 567.255 398.818 566.874 398.409C566.052 397.526 564.685 397.256 563.936 396.312C563 395.133 563.393 393.424 563.951 392.032C564.508 390.639 565.198 389.128 564.718 387.708C564.153 386.034 562.148 385.133 561.61 383.451C563.146 376.667 559.374 369.65 559.697 362.708C559.772 361.091 560.058 359.485 560.064 357.866C560.078 353.696 558.241 349.639 558.543 345.48C559.311 334.909 555.648 324.357 554.097 313.871C553.802 312.305 553.693 310.712 553.769 309.122C554 306.497 555.239 304.054 556.73 301.865C557.799 300.296 559.084 298.761 560.853 298.027C562.31 297.423 563.943 297.425 565.525 297.437C569.471 297.467 573.417 297.497 577.363 297.567C580.048 297.53 582.73 297.766 585.365 298.271C587.5 298.751 589.496 299.729 591.664 300.034Z" fill="#333333"/>
<path d="M527.907 251.847C527.524 250.009 528.247 248.042 527.682 246.249C527.478 245.603 526.977 244.931 526.289 244.95C525.621 244.968 525.168 245.611 524.575 245.916C523.62 246.407 522.459 245.961 521.504 245.469C520.549 244.977 519.485 244.42 518.449 244.715C518.327 245.352 518.765 245.96 519.242 246.409C519.769 246.801 520.206 247.299 520.523 247.87C520.679 248.487 520.738 249.124 520.698 249.758C520.807 251.215 521.746 252.469 522.683 253.601C524.194 255.427 525.798 257.176 527.49 258.841C527.487 258.838 530.056 255.713 530.007 255.167C529.96 254.652 529.096 254.171 528.782 253.755C528.352 253.19 528.053 252.538 527.907 251.847Z" fill="#A1616A"/>
<path d="M604.418 290.334C604.647 290.918 604.819 291.522 604.931 292.139C605.594 295.296 606.011 298.498 606.423 301.696C606.533 302.55 606.643 303.404 606.677 304.264C606.793 306.306 606.366 308.342 605.437 310.171C604.493 312.005 602.887 313.428 600.933 314.161C600.331 314.371 599.489 314.409 599.227 313.837C599.133 313.572 599.135 313.284 599.232 313.021C599.47 312.169 599.954 311.405 600.267 310.577C600.733 309.341 600.81 307.995 600.49 306.715C600.366 306.226 600.106 305.68 599.603 305.582C599.854 306.711 599.642 307.892 599.014 308.868C598.871 309.14 598.624 309.346 598.327 309.44C598.119 309.46 597.91 309.411 597.734 309.299C597.559 309.188 597.427 309.021 597.36 308.826C597.237 308.433 597.21 308.016 597.282 307.61C597.443 305.559 597.761 303.522 598.233 301.517C598.794 299.316 599.683 297.145 599.626 294.877C599.574 292.821 598.741 290.804 598.975 288.76C598.978 288.634 599.019 288.512 599.094 288.409C599.167 288.337 599.256 288.283 599.354 288.251C599.938 288.014 600.539 287.818 601.151 287.666C601.513 287.576 602.749 287.155 603.096 287.343C603.377 287.496 603.463 288.412 603.604 288.721C603.852 289.27 604.183 289.779 604.418 290.334Z" fill="#A1616A"/>
<path d="M563.153 229.447C567.869 229.447 571.692 225.69 571.692 221.055C571.692 216.42 567.869 212.662 563.153 212.662C558.437 212.662 554.614 216.42 554.614 221.055C554.614 225.69 558.437 229.447 563.153 229.447Z" fill="#A1616A"/>
<path d="M570.804 227.128C570.803 227.663 570.846 228.197 570.933 228.725C571.051 229.259 571.217 229.782 571.431 230.286C571.716 231.107 572.119 231.883 572.627 232.592C573.143 233.306 573.915 233.8 574.788 233.976C568.951 236.665 562.721 238.434 556.325 239.22C557.333 238.561 558.171 237.682 558.774 236.65C559.094 235.988 559.313 235.283 559.423 234.558C559.967 231.524 559.691 228.403 558.62 225.507C558.514 225.221 558.411 224.871 558.611 224.64C558.697 224.554 558.8 224.488 558.915 224.446C561.451 223.391 564.189 222.889 566.942 222.975C567.645 222.98 568.349 223.01 569.05 223.06C569.428 223.087 570.261 223.009 570.561 223.28C570.919 223.605 570.74 224.611 570.751 225.05L570.804 227.128Z" fill="#A1616A"/>
<path d="M575.322 233.234C574.066 231.652 572.307 230.529 570.326 230.044C568.345 229.558 566.255 229.739 564.391 230.557C560.327 232.464 558.325 237.043 554.751 239.736C553.938 240.334 553.071 240.859 552.162 241.303C551.626 241.595 551.053 241.817 550.459 241.966C549.791 242.111 549.093 242.09 548.428 242.248C547.161 242.614 546.081 243.437 545.406 244.553C545.071 245.137 544.7 245.699 544.295 246.238C543.921 246.674 543.457 247.026 543.062 247.443C541.641 248.944 541.255 251.1 540.931 253.126C539.819 254.277 538.605 255.329 537.304 256.269C536.895 256.579 536.441 256.826 535.957 257.002C534.707 257.4 533.328 256.893 532.262 256.137C531.196 255.38 530.328 254.383 529.277 253.606C528.311 254.963 527.302 256.324 526.273 257.634C526.118 257.884 525.881 258.075 525.602 258.176C525.409 258.815 525.872 259.476 526.219 260.049L528.081 263.125C528.696 264.244 529.451 265.284 530.328 266.22C531.218 267.161 532.433 267.742 533.736 267.848C534.558 267.841 535.372 267.688 536.139 267.396C539.687 266.223 542.944 264.351 546.32 262.761C546.931 262.417 547.616 262.22 548.319 262.184C548.671 262.175 549.016 262.279 549.301 262.481C549.586 262.683 549.797 262.972 549.899 263.302C550.287 265.223 550.671 267.137 551.203 269.024C551.705 270.804 552.171 272.593 552.602 274.392C552.889 275.492 553.095 276.612 553.216 277.741C553.272 278.383 553.278 279.027 553.284 279.671L553.356 287.451C553.364 288.289 552.878 288.812 552.504 289.564C551.931 290.732 551.844 292.074 552.263 293.304C552.473 293.911 552.802 294.471 553.034 295.07C553.597 296.518 553.575 298.112 553.546 299.662L553.479 303.212C553.462 303.359 553.489 303.508 553.557 303.64C553.777 303.978 554.309 303.78 554.645 303.551L556.334 302.4C558.594 302.707 560.877 302.815 563.156 302.724C569.639 302.632 576.123 302.886 582.59 303.331C584.748 303.479 586.979 303.64 589.019 302.933C590.054 302.573 591.007 302 592.065 301.712C592.502 301.645 592.916 301.477 593.274 301.223C593.866 300.684 593.709 299.74 593.467 298.983C593.256 298.322 593.016 297.67 592.748 297.028C592.471 296.437 592.246 295.825 592.074 295.197C591.75 293.781 592.066 292.145 591.169 290.992C589.161 288.41 590.582 284.439 589.739 281.297C589.466 280.28 589.064 279.3 588.808 278.279C588.648 277.639 588.546 276.985 588.445 276.333C588.181 274.921 588.05 273.489 588.053 272.054C588.078 271.336 588.17 270.622 588.262 269.909L588.899 264.96C589.697 266.423 590.251 268.003 590.541 269.639C591.122 272.082 591.837 274.492 592.683 276.859C593.164 278.286 593.645 279.714 594.164 281.128C594.493 281.933 594.746 282.766 594.921 283.616C595.036 284.302 595.039 285.002 595.12 285.692C595.295 287.173 595.822 288.593 596.659 289.836C596.813 290.124 597.069 290.347 597.379 290.464C597.588 290.502 597.803 290.494 598.008 290.439C600.263 290.002 602.444 289.26 604.492 288.235C604.928 288.058 605.306 287.767 605.587 287.394C606.138 286.514 605.522 285.413 605.254 284.413C604.967 283.342 605.034 282.053 604.175 281.334C601.185 278.833 602.669 273.755 601.172 270.188C600.91 269.561 600.604 268.952 600.377 268.312C600.204 267.823 600.078 267.319 599.952 266.817C598.907 262.661 597.789 258.524 596.597 254.406C595.362 250.136 595.494 245.689 593.939 241.521C593.646 240.648 593.264 239.806 592.799 239.008C592.273 238.175 591.569 237.463 590.737 236.921C588.48 235.454 586.201 234.205 583.55 233.672C580.898 233.14 578.028 233.222 575.322 233.234Z" fill="#D0CDE1"/>
<path d="M555.393 223.109C554.246 222.501 554.548 220.851 554.353 219.584C553.952 216.977 550.954 215.431 550.251 212.887C551.059 212.984 551.879 212.87 552.628 212.556C552.773 211.711 552.603 210.844 552.149 210.112C554.614 209.128 556.609 207.197 559.112 206.31C562.259 205.194 565.765 205.879 568.94 206.916C570.524 207.433 572.173 208.105 573.13 209.449C574.182 210.925 574.166 212.868 574.11 214.669C574.021 217.494 573.908 220.421 572.628 222.952C570.999 226.175 566.385 229.16 562.574 228.286C560.989 227.923 560.522 226.945 559.854 225.591C559.438 224.749 559.282 223.77 558.346 223.332C557.431 222.904 556.322 223.6 555.393 223.109Z" fill="#2F2E41"/>
<path opacity="0.1" d="M590.019 283.282C590.029 283.505 590.036 283.73 590.038 283.955C590.027 283.733 590.021 283.509 590.019 283.282Z" fill="black"/>
<path opacity="0.1" d="M553.035 291.713C553.597 293.161 553.575 294.755 553.546 296.304C553.538 296.709 553.531 297.113 553.523 297.518C553.487 296.682 553.322 295.857 553.035 295.07C552.802 294.471 552.473 293.911 552.263 293.304C551.903 292.243 551.916 291.094 552.301 290.042C552.511 290.612 552.814 291.146 553.035 291.713Z" fill="black"/>
<path opacity="0.1" d="M552.628 211.335L552.62 211.338C552.542 210.904 552.382 210.489 552.149 210.112C552.294 210.054 552.437 209.993 552.578 209.929C552.691 210.39 552.707 210.868 552.628 211.335Z" fill="black"/>
<path d="M283.545 194.226L281.532 192.442C274.385 185.993 269.667 181.807 269.667 176.593C269.649 175.6 269.834 174.615 270.211 173.694C270.588 172.774 271.148 171.937 271.86 171.233C272.572 170.529 273.42 169.973 274.354 169.597C275.289 169.221 276.29 169.034 277.3 169.045C278.491 169.051 279.667 169.312 280.745 169.81C281.824 170.307 282.779 171.03 283.545 171.927C284.311 171.03 285.266 170.307 286.344 169.81C287.423 169.312 288.598 169.051 289.79 169.045C290.799 169.034 291.801 169.221 292.735 169.597C293.67 169.973 294.518 170.529 295.229 171.233C295.941 171.937 296.502 172.774 296.879 173.694C297.255 174.615 297.44 175.6 297.423 176.592C297.423 181.807 292.704 185.993 285.557 192.442L283.545 194.226Z" fill="#FF6584"/>
<path d="M287.114 189.716L285.101 187.932C277.954 181.483 273.236 177.297 273.236 172.082C273.218 171.09 273.403 170.105 273.78 169.184C274.157 168.264 274.718 167.427 275.429 166.723C276.141 166.019 276.989 165.463 277.923 165.087C278.858 164.711 279.859 164.523 280.869 164.535C282.06 164.541 283.236 164.802 284.314 165.3C285.393 165.797 286.348 166.52 287.114 167.417C287.88 166.52 288.835 165.797 289.913 165.3C290.992 164.802 292.168 164.541 293.359 164.535C294.368 164.523 295.37 164.711 296.304 165.087C297.239 165.463 298.087 166.019 298.799 166.723C299.51 167.427 300.071 168.264 300.448 169.184C300.825 170.105 301.01 171.09 300.992 172.082C300.992 177.297 296.273 181.483 289.126 187.932L287.114 189.716Z" stroke="#3F3D56" stroke-width="2" stroke-miterlimit="10"/>
</svg>
