<svg width="68" height="68" viewBox="0 0 68 68" fill="none" xmlns="http://www.w3.org/2000/svg">
<path d="M0.5 33.7072C0.5 15.3673 15.3673 0.5 33.7072 0.5C52.047 0.5 66.9143 15.3673 66.9143 33.7072C66.9143 52.047 52.047 66.9143 33.7072 66.9143C15.3673 66.9143 0.5 52.047 0.5 33.7072Z" stroke="#6C63FF"/>
<path d="M34 18L21 23.6364V32.0909C21 39.9114 26.5467 47.2245 34 49C41.4533 47.2245 47 39.9114 47 32.0909V23.6364L34 18ZM34 26.4545C36.0222 26.4545 38.0444 28.0045 38.0444 29.9773V32.0909C38.9111 32.0909 39.7778 32.9364 39.7778 33.9227V38.8545C39.7778 39.7 38.9111 40.5455 37.9 40.5455H29.9556C29.0889 40.5455 28.2222 39.7 28.2222 38.7136V33.7818C28.2222 32.9364 29.0889 32.0909 29.9556 32.0909V29.9773C29.9556 28.0045 31.9778 26.4545 34 26.4545ZM34 28.1455C32.8444 28.1455 31.8333 28.85 31.8333 29.9773V32.0909H36.1667V29.9773C36.1667 28.85 35.1556 28.1455 34 28.1455Z" fill="#6C63FF"/>
</svg>
