<svg width="770" height="373" viewBox="0 0 770 373" fill="none" xmlns="http://www.w3.org/2000/svg">
<g clip-path="url(#clip0)">
<path d="M740.214 24.6941H397.477V190.624H740.214V24.6941Z" fill="#E6E6E6"/>
<path d="M358.071 341.109L366.188 338.844C367.629 335.232 368.858 331.545 369.869 327.799L366.057 327.665L370.213 326.505C371.416 321.861 371.91 318.713 371.91 318.713C371.91 318.713 355.446 323.46 343.048 332.726L341.518 343.117L340.055 335.127C338.705 336.287 337.433 337.527 336.244 338.841C324.308 352.128 319.114 366.674 324.643 371.331C330.172 375.987 344.329 368.99 356.265 355.702C359.959 351.388 362.948 346.55 365.128 341.358L358.071 341.109Z" fill="#E6E6E6"/>
<path d="M50.5246 293.766L45.8977 276.096C37.6935 272.729 29.2997 269.814 20.7563 267.362L20.1721 275.574L17.8031 266.527C7.20791 263.598 0 262.307 0 262.307C0 262.307 9.73627 298.156 30.1573 325.563L53.9523 329.61L35.4666 332.191C38.0365 335.184 40.7982 338.018 43.7355 340.676C73.4423 367.375 106.53 379.625 117.639 368.036C128.748 356.448 113.672 325.41 83.965 298.711C74.7556 290.433 63.1866 283.791 51.6061 278.564L50.5246 293.766Z" fill="#E6E6E6"/>
<path d="M94.5303 274.577L100.003 257.135C94.7767 250.146 89.1479 243.449 83.1429 237.075L78.2588 243.812L81.0607 234.882C73.5546 227.071 68.0732 222.359 68.0732 222.359C68.0732 222.359 57.2701 257.92 60.1204 291.603L78.3295 306.976L61.1272 299.934C61.7292 303.782 62.5805 307.59 63.6762 311.336C74.8534 349.06 96.6387 376.106 112.335 371.746C128.031 367.386 131.695 333.27 120.517 295.546C117.052 283.851 110.695 272.375 103.572 262.104L94.5303 274.577Z" fill="#E6E6E6"/>
<path d="M168.554 347.592L170.465 355.918L183.84 354.992L182.885 345.742L168.554 347.592Z" fill="#FFB8B8"/>
<path d="M135.117 347.592L133.206 355.918L119.83 354.992L120.786 345.742L135.117 347.592Z" fill="#FFB8B8"/>
<path d="M131.295 77.4785C141.32 77.4785 149.447 69.6095 149.447 59.9026C149.447 50.1957 141.32 42.3267 131.295 42.3267C121.27 42.3267 113.143 50.1957 113.143 59.9026C113.143 69.6095 121.27 77.4785 131.295 77.4785Z" fill="#FFB8B8"/>
<path d="M119.83 64.5276L115.054 85.8041L138.938 93.2043L137.982 66.3783L119.83 64.5276Z" fill="#FFB8B8"/>
<path d="M128.429 88.579L116.409 79.7674C116.409 79.7674 114.098 76.5534 113.143 79.3285C112.188 82.1037 103.589 92.2792 103.589 92.2792L110.277 168.133L160.911 169.058C160.911 169.058 141.126 80.6332 138.599 83.6811C136.072 86.729 129.384 86.7289 128.429 88.579Z" fill="#D0CDE1"/>
<path d="M138.46 77.9409C138.46 77.9409 134.639 81.6411 136.55 84.4162C138.46 87.1914 137.027 92.3374 138.938 92.7708C140.849 93.2042 137.027 124.656 142.759 132.981C148.492 141.307 145.626 162.583 145.626 166.283C145.626 169.983 151.358 192.184 151.358 192.184C151.358 192.184 170.465 194.034 170.465 189.409C170.465 184.784 163.778 152.407 163.778 152.407L169.51 95.0543C169.51 95.0543 169.51 89.504 162.822 87.6539C156.135 85.8038 142.759 81.1786 142.759 81.1786L138.46 77.9409Z" fill="#333333"/>
<path d="M165.688 145.007H160.911C160.911 145.007 136.072 146.857 137.983 136.682C139.893 126.506 159.001 133.906 159.001 133.906L164.733 136.682L165.688 145.007Z" fill="#FFB8B8"/>
<path d="M117.168 76.3854C117.168 76.3854 109.322 81.1786 108.366 83.0287C107.411 84.8788 85.4374 95.0543 85.4374 102.455C85.4374 109.855 92.1249 118.181 92.1249 118.181L100.723 199.585C100.723 199.585 115.054 204.21 116.009 200.51C116.965 196.81 120.786 115.405 118.875 111.705C116.965 108.005 116.965 83.9538 116.965 83.9538L117.168 76.3854Z" fill="#333333"/>
<path d="M92.1249 210.685L91.1696 216.236C91.1696 216.236 92.1249 234.737 99.7679 233.811C107.411 232.886 102.634 214.385 102.634 214.385L101.679 210.685H92.1249Z" fill="#FFB8B8"/>
<path d="M103.589 163.508C103.589 163.508 104.545 246.762 109.322 273.589C114.098 300.415 116.009 346.667 116.009 346.667C116.009 346.667 128.429 348.517 130.34 349.443C132.25 350.368 137.027 347.592 137.027 347.592L137.983 210.685L156.135 272.664C156.135 272.664 159.001 347.592 164.733 349.443C170.465 351.293 187.662 347.592 187.662 347.592C187.662 347.592 180.974 276.364 179.063 273.589C177.153 270.813 172.376 189.409 164.733 174.609L161.867 164.433C161.867 164.433 107.411 166.283 103.589 163.508Z" fill="#333333"/>
<path d="M171.42 352.218C171.42 352.218 166.644 348.517 166.644 351.293C166.644 354.068 161.867 371.181 167.599 371.181C173.331 371.181 211.546 374.419 210.59 367.018C209.635 359.618 186.646 347.801 186.646 347.801C186.646 347.801 178.108 350.368 177.153 351.293C176.197 352.218 171.42 352.218 171.42 352.218Z" fill="#333333"/>
<path d="M132.25 352.218C132.25 352.218 137.027 348.517 137.027 351.293C137.027 354.068 141.804 371.181 136.072 371.181C130.34 371.181 92.125 374.419 93.0804 367.018C94.0357 359.618 117.025 347.801 117.025 347.801C117.025 347.801 125.563 350.368 126.518 351.293C127.474 352.218 132.25 352.218 132.25 352.218Z" fill="#333333"/>
<path d="M162.822 94.1293L169.51 95.0543L182.885 132.056C182.885 132.056 186.706 150.557 180.974 153.332C175.242 156.107 164.423 155.565 164.423 155.565L162.822 134.831L167.599 135.756L162.822 126.506V94.1293Z" fill="#333333"/>
<path d="M90.2141 98.7545L85.4373 102.455C85.4373 102.455 80.6605 149.632 81.6158 154.257C82.5712 158.883 88.3034 215.311 88.3034 215.311L104.545 211.61L93.0802 99.6796L90.2141 98.7545Z" fill="#333333"/>
<path d="M111.214 47.1279C111.214 47.1279 105.929 40.6364 111.214 37.3906V39.0135C111.214 39.0135 122.538 26.8419 129.333 30.0877L135.373 28.4648V30.0877L139.148 28.4648L138.393 30.8991H143.678L141.413 32.522C141.413 32.522 158.778 31.7106 148.208 43.8821C148.208 43.8821 153.232 51.1797 148.455 55.2396C148.455 55.2396 144.433 46.3164 139.148 48.7507C137.716 49.4704 136.101 49.7765 134.495 49.6327C132.889 49.4888 131.359 48.901 130.088 47.9393C130.088 47.9393 119.518 47.1279 121.028 51.9965C122.538 56.8651 121.783 58.488 121.783 58.488C121.783 58.488 118.008 60.9223 118.763 62.5452C119.518 64.168 119.518 69.0366 119.518 69.0366C119.518 69.0366 115.743 63.3566 114.233 64.168C112.724 64.9795 104.419 56.8651 111.214 47.1279Z" fill="#2F2E41"/>
<path d="M318.332 105.227L278.161 106.193L272.754 59.8131H318.332V105.227Z" fill="#2F2E41"/>
<path d="M275.81 165.35L261.147 263.789C261.147 263.789 248.439 298.81 247.461 315.847L243.551 340.457L261.147 344.243L279.72 275.147L305.136 212.676L302.204 284.612L296.338 343.296L313.934 346.136L324.687 271.361L336.418 216.462C336.418 216.462 345.215 169.136 331.53 164.404L275.81 165.35Z" fill="#333333"/>
<path d="M259.97 334.416L258.013 357.454C258.013 357.454 278.953 369.175 272.234 371.447C265.516 373.72 256.32 370.796 254.439 370.28C252.452 369.735 248.744 368.865 245.938 368.221C244.639 367.933 243.47 367.25 242.601 366.272C241.733 365.293 241.211 364.071 241.112 362.785L241.107 362.7C240.938 359.865 247.543 335.23 247.543 335.23L259.97 334.416Z" fill="#333333"/>
<path d="M310.819 334.992L312.468 357.021C312.468 357.021 336.312 365.599 330.166 369.072C324.019 372.545 314.416 371.378 312.468 371.219C308.876 370.926 299.937 370.634 299.937 370.634C299.937 370.634 298.284 372.019 297.559 369.268C296.833 366.516 298.526 341.939 298.526 341.939L310.819 334.992Z" fill="#333333"/>
<path d="M296.338 85.8426C306.596 85.8426 314.912 77.7909 314.912 67.8587C314.912 57.9264 306.596 49.8748 296.338 49.8748C286.08 49.8748 277.765 57.9264 277.765 67.8587C277.765 77.7909 286.08 85.8426 296.338 85.8426Z" fill="#FFB8B8"/>
<path d="M285.585 78.2703L281.675 99.094L298.293 106.666L302.203 80.1638L285.585 78.2703Z" fill="#FFB8B8"/>
<path d="M283.63 176.709L304.159 190.906C304.159 190.906 312.956 212.676 319.799 208.89C326.642 205.104 311.979 186.174 311.979 186.174L295.361 170.083L283.63 176.709Z" fill="#FFB8B8"/>
<path d="M342.283 170.083L344.238 181.441C344.238 181.441 339.35 205.104 333.485 200.372C327.62 195.639 335.44 180.495 335.44 180.495L334.462 171.03L342.283 170.083Z" fill="#FFB8B8"/>
<path d="M296.338 100.987L294.383 93.4147L282.653 87.7356L278.743 92.4682L266.034 96.2543L280.698 171.976C280.698 171.976 330.552 174.816 331.53 167.243C332.507 159.671 321.754 138.848 321.754 138.848C321.754 138.848 324.687 128.436 323.709 122.757L319.799 100.04L304.159 95.3078L300.587 91.1233L297.316 96.2542L296.338 100.987Z" fill="#D0CDE1"/>
<path d="M268.967 98.1473L266.034 96.2543C266.034 96.2543 260.169 97.2008 258.214 104.773C256.259 112.345 258.214 146.42 263.102 153.046C267.989 159.671 281.675 179.548 281.675 179.548L300.248 171.029L280.698 149.259L275.81 121.81L268.967 98.1473Z" fill="#D0CDE1"/>
<path d="M311.979 101.933L319.799 100.04C319.799 100.04 324.687 101.933 326.642 108.559C328.597 115.185 339.35 148.313 338.373 151.153C337.395 153.992 347.171 172.923 347.171 172.923L333.485 173.869L325.665 153.992L317.844 134.115L311.979 101.933Z" fill="#D0CDE1"/>
<path d="M264.147 84.9372C268.064 82.8545 269.887 78.1799 270.017 73.8548C270.147 69.5298 269.064 65.2494 268.978 60.9233C268.935 60.0382 269.013 59.1515 269.21 58.2863C269.535 57.2124 270.041 56.1979 270.708 55.284C275.802 47.7268 284.656 42.4108 293.982 42.3272C295.33 42.3101 296.668 42.5482 297.921 43.0282C298.885 43.4021 299.2 43.3563 299.385 44.5027C301.594 43.797 303.99 43.8707 306.149 44.7109C308.287 45.5525 310.281 46.7025 312.064 48.1217C313.123 48.8846 314.123 49.7226 315.054 50.6288C319.983 55.5727 321.118 63.1922 319.69 69.9232C319.226 72.1115 321.453 74.2241 323.296 75.5682C325.139 76.9123 327.267 78.1465 328.172 80.2015C329.042 82.1782 328.564 84.439 328.74 86.5813C328.936 88.6063 329.714 90.5379 330.984 92.1578C332.254 93.7778 333.967 95.0217 335.929 95.7491C335.529 96.2131 335.006 96.5638 334.418 96.7644C333.829 96.9649 333.195 97.0078 332.583 96.8886C331.305 96.628 330.11 96.077 329.096 95.2812C325.281 92.5443 322.552 88.6232 321.363 84.1725C320.822 86.5564 321.032 89.0151 321.052 91.4558C321.005 94.1796 321.523 96.8848 322.576 99.4111C323.646 101.949 325.608 104.041 328.114 105.316C325.697 106.463 323.033 105.632 320.984 103.941C319.021 102.136 317.602 99.8479 316.881 97.3214C315.506 93.2887 314.949 89.0369 315.239 84.7996C312.99 88.4653 312.169 92.7884 312.922 96.9891C313.709 101.272 316.018 105.153 319.45 107.961C313.466 107.912 307.582 106.477 302.288 103.776C300.921 103.176 299.716 102.277 298.768 101.151C297.064 98.8625 297.467 95.7417 297.945 92.9591C298.323 90.759 295.483 87.5782 297.109 85.9984C297.593 85.5361 298.238 85.2675 298.917 85.2462C301.362 85.0691 303.732 84.3499 305.845 83.1444C307.957 81.9389 309.755 80.2793 311.1 78.2937C312.975 75.5637 314.04 72.3876 314.179 69.1116C314.178 66.7062 313.64 64.3294 312.603 62.1436C311.566 59.9579 310.053 58.0148 308.169 56.4472C306.285 54.8796 304.073 53.7244 301.685 53.0606C299.297 52.3967 296.79 52.2399 294.334 52.6009C291.877 52.9619 289.531 53.8321 287.454 55.1521C285.377 56.472 283.619 58.2106 282.3 60.2491C280.981 62.2875 280.132 64.5776 279.811 66.9629C279.491 69.3482 279.705 71.7724 280.441 74.0699C281.028 75.9187 281.448 77.8133 281.698 79.7323C281.992 81.959 282.46 84.161 283.098 86.3193C284.328 90.4673 286.413 94.6997 290.269 96.8632C288.921 97.4224 287.472 97.7195 286.005 97.7375C281.166 98.2538 276.076 98.1398 271.696 96.0819C267.316 94.024 263.835 89.6415 264.147 84.9372Z" fill="#2F2E41"/>
<path d="M274.707 66.5774C288.604 61.184 302.306 60.0335 315.65 66.5774V55.7062C315.65 53.8283 314.879 52.0273 313.508 50.6995C312.136 49.3716 310.276 48.6256 308.337 48.6256H280.484C279.725 48.6256 278.974 48.7703 278.273 49.0514C277.572 49.3325 276.935 49.7445 276.399 50.264C275.862 50.7834 275.437 51.4 275.146 52.0787C274.856 52.7574 274.707 53.4848 274.707 54.2193V66.5774Z" fill="#2F2E41"/>
<path d="M279.032 73.3094C280.163 73.3094 281.08 71.8886 281.08 70.136C281.08 68.3833 280.163 66.9625 279.032 66.9625C277.9 66.9625 276.983 68.3833 276.983 70.136C276.983 71.8886 277.9 73.3094 279.032 73.3094Z" fill="#FFB8B8"/>
<path d="M451.155 371.32H0V373H451.155V371.32Z" fill="#4D4D4E"/>
<path d="M770 167.611H425.526V0H770V167.611ZM427.261 165.931H768.265V1.68014H427.261V165.931Z" fill="#3F3D56"/>
<path d="M596.765 136.335C596.763 139.016 595.941 141.636 594.401 143.864C592.862 146.092 590.675 147.828 588.117 148.853C585.559 149.878 582.745 150.145 580.029 149.622C577.314 149.099 574.82 147.808 572.863 145.912C570.905 144.017 569.572 141.602 569.031 138.973C568.491 136.344 568.767 133.619 569.826 131.142C570.884 128.665 572.677 126.548 574.978 125.057C577.279 123.567 579.985 122.77 582.753 122.768C584.595 122.763 586.419 123.111 588.122 123.791C589.824 124.471 591.371 125.47 592.673 126.731C593.975 127.991 595.007 129.489 595.709 131.137C596.412 132.786 596.771 134.552 596.765 136.335Z" fill="#6C63FF"/>
<path opacity="0.3" d="M596.765 136.335C596.763 139.016 595.941 141.636 594.401 143.864C592.862 146.092 590.675 147.828 588.117 148.853C585.559 149.878 582.745 150.145 580.029 149.622C577.314 149.099 574.82 147.808 572.863 145.912C570.905 144.017 569.572 141.602 569.031 138.973C568.491 136.344 568.767 133.619 569.826 131.142C570.884 128.665 572.677 126.548 574.978 125.057C577.279 123.567 579.985 122.77 582.753 122.768C584.595 122.763 586.419 123.111 588.122 123.791C589.824 124.471 591.371 125.47 592.673 126.731C593.975 127.991 595.007 129.489 595.709 131.137C596.412 132.786 596.771 134.552 596.765 136.335Z" fill="black"/>
<path d="M622.143 67.9451C622.169 72.3789 621.226 76.7678 619.375 80.8234C618.574 82.569 617.612 84.2418 616.503 85.8218C614.205 89.0385 611.448 91.9235 608.313 94.3906C607.775 94.8274 607.185 95.281 606.396 95.8691C605.407 96.5831 604.305 97.3308 603.038 98.1373C600.801 99.5379 598.649 101.061 596.592 102.699C595.371 103.62 594.314 104.726 593.46 105.975C592.392 107.781 591.854 111.276 591.854 116.367V117.207H568.464V113.275C568.464 110.201 568.542 107.613 568.689 105.362C568.796 103.322 569.016 101.289 569.349 99.2714C569.578 97.4972 570.13 95.7763 570.98 94.1889C572.515 91.7107 576.22 88.342 582.293 83.8897C582.554 83.7048 582.814 83.5116 583.083 83.3184C583.335 83.1504 583.577 82.974 583.829 82.7891C585.933 81.3422 587.87 79.6805 589.608 77.8327C590.115 77.2572 590.584 76.6511 591.013 76.0182L591.126 75.8502C592.486 73.5174 593.152 70.8657 593.052 68.1887C593.058 67.5114 593.012 66.8346 592.913 66.1641C592.643 63.5488 591.389 61.121 589.391 59.3427C587.222 57.4178 584.425 56.2884 581.487 56.1504C581.114 56.1168 580.767 56.1084 580.411 56.1084C579.028 56.101 577.65 56.259 576.307 56.5789C573.79 57.18 571.532 58.5318 569.852 60.4432C568.962 61.461 568.204 62.5812 567.596 63.7783C565.547 68.3568 564.236 73.2131 563.709 78.1771L563.623 79.0592L541.603 73.3803V63.9799C541.707 63.6019 541.82 63.2238 541.941 62.8542C543.347 58.1397 545.587 53.697 548.561 49.7239C549.832 48.0379 551.264 46.4713 552.838 45.0447C553.211 44.6835 553.619 44.3306 554.027 43.9862C556.676 41.759 559.62 39.8832 562.781 38.4081L563.059 38.2821C569.046 35.6029 575.577 34.2594 582.172 34.3505C582.857 34.3505 583.664 34.3589 584.462 34.4009C591.016 34.5618 597.448 36.1496 603.281 39.0465C605.9 40.3594 608.354 41.9606 610.595 43.8181C616.881 48.7795 620.929 55.913 621.882 63.711C622.056 65.1161 622.143 66.53 622.143 67.9451Z" fill="#6C63FF"/>
<path opacity="0.3" d="M622.143 67.9451C622.169 72.3789 621.226 76.7678 619.375 80.8234C618.574 82.569 617.612 84.2418 616.503 85.8218C614.205 89.0385 611.448 91.9235 608.313 94.3906C607.775 94.8274 607.185 95.281 606.396 95.8691C605.407 96.5831 604.305 97.3308 603.038 98.1373C600.801 99.5379 598.649 101.061 596.592 102.699C595.371 103.62 594.314 104.726 593.46 105.975C592.392 107.781 591.854 111.276 591.854 116.367V117.207H568.464V113.275C568.464 110.201 568.542 107.613 568.689 105.362C568.796 103.322 569.016 101.289 569.349 99.2714C569.578 97.4972 570.13 95.7763 570.98 94.1889C572.515 91.7107 576.22 88.342 582.293 83.8897C582.554 83.7048 582.814 83.5116 583.083 83.3184C583.335 83.1504 583.577 82.974 583.829 82.7891C585.933 81.3422 587.87 79.6805 589.608 77.8327C590.115 77.2572 590.584 76.6511 591.013 76.0182L591.126 75.8502C592.486 73.5174 593.152 70.8657 593.052 68.1887C593.058 67.5114 593.012 66.8346 592.913 66.1641C592.643 63.5488 591.389 61.121 589.391 59.3427C587.222 57.4178 584.425 56.2884 581.487 56.1504C581.114 56.1168 580.767 56.1084 580.411 56.1084C579.028 56.101 577.65 56.259 576.307 56.5789C573.79 57.18 571.532 58.5318 569.852 60.4432C568.962 61.461 568.204 62.5812 567.596 63.7783C565.547 68.3568 564.236 73.2131 563.709 78.1771L563.623 79.0592L541.603 73.3803V63.9799C541.707 63.6019 541.82 63.2238 541.941 62.8542C543.347 58.1397 545.587 53.697 548.561 49.7239C549.832 48.0379 551.264 46.4713 552.838 45.0447C553.211 44.6835 553.619 44.3306 554.027 43.9862C556.676 41.759 559.62 39.8832 562.781 38.4081L563.059 38.2821C569.046 35.6029 575.577 34.2594 582.172 34.3505C582.857 34.3505 583.664 34.3589 584.462 34.4009C591.016 34.5618 597.448 36.1496 603.281 39.0465C605.9 40.3594 608.354 41.9606 610.595 43.8181C616.881 48.7795 620.929 55.913 621.882 63.711C622.056 65.1161 622.143 66.53 622.143 67.9451Z" fill="black"/>
<path d="M587.222 136.335C587.22 139.016 586.397 141.636 584.858 143.864C583.318 146.092 581.132 147.828 578.573 148.853C576.015 149.878 573.201 150.145 570.486 149.622C567.771 149.099 565.277 147.808 563.319 145.912C561.361 144.017 560.028 141.602 559.488 138.973C558.947 136.344 559.223 133.619 560.282 131.142C561.34 128.665 563.133 126.548 565.434 125.057C567.735 123.567 570.441 122.77 573.21 122.768C575.051 122.763 576.876 123.111 578.578 123.791C580.28 124.471 581.827 125.47 583.129 126.731C584.431 127.991 585.463 129.489 586.165 131.137C586.868 132.786 587.227 134.552 587.222 136.335Z" fill="#6C63FF"/>
<path d="M612.599 67.9451C612.625 72.3789 611.682 76.7678 609.831 80.8234C609.03 82.569 608.069 84.2418 606.96 85.8218C604.661 89.0385 601.904 91.9235 598.769 94.3906C598.231 94.8274 597.642 95.281 596.852 95.8691C595.863 96.5831 594.761 97.3308 593.494 98.1373C591.258 99.5379 589.105 101.061 587.048 102.699C585.828 103.62 584.77 104.726 583.916 105.975C582.849 107.781 582.311 111.276 582.311 116.367V117.207H558.92V113.275C558.92 110.201 558.998 107.613 559.146 105.362C559.252 103.322 559.472 101.289 559.805 99.2714C560.034 97.4972 560.586 95.7763 561.436 94.1889C562.972 91.7107 566.676 88.342 572.75 83.8897C573.01 83.7048 573.27 83.5116 573.539 83.3184C573.791 83.1504 574.034 82.974 574.285 82.7891C576.389 81.3422 578.327 79.6805 580.064 77.8327C580.571 77.2572 581.041 76.6511 581.469 76.0182L581.582 75.8502C582.942 73.5174 583.609 70.8657 583.508 68.1887C583.515 67.5114 583.468 66.8346 583.369 66.1641C583.1 63.5488 581.846 61.121 579.847 59.3427C577.678 57.4178 574.882 56.2884 571.943 56.1504C571.57 56.1168 571.223 56.1084 570.867 56.1084C569.484 56.101 568.106 56.259 566.763 56.5789C564.247 57.18 561.988 58.5318 560.308 60.4432C559.418 61.461 558.66 62.5812 558.053 63.7783C556.491 66.7942 555.476 70.7929 555.033 75.6569L554.946 76.539L530.185 73.1199L530.306 72.2882C530.742 69.0944 531.441 65.9396 532.397 62.8542C533.803 58.1397 536.043 53.697 539.017 49.7239C540.288 48.0379 541.721 46.4713 543.294 45.0447C543.667 44.6835 544.075 44.3306 544.483 43.9862C547.133 41.759 550.077 39.8832 553.237 38.4081L553.515 38.2821C559.502 35.6029 566.034 34.2594 572.628 34.3505C573.314 34.3505 574.121 34.3589 574.919 34.4009C581.472 34.5618 587.904 36.1496 593.737 39.0465C596.357 40.3594 598.811 41.9606 601.051 43.8181C607.337 48.7795 611.385 55.913 612.339 63.711C612.513 65.1161 612.599 66.53 612.599 67.9451Z" fill="#6C63FF"/>
</g>
<defs>
<clipPath id="clip0">
<rect width="770" height="373" fill="white"/>
</clipPath>
</defs>
</svg>
