<svg width="68" height="68" viewBox="0 0 68 68" fill="none" xmlns="http://www.w3.org/2000/svg">
<path d="M0.5 33.7072C0.5 15.3673 15.3673 0.5 33.7072 0.5C52.047 0.5 66.9143 15.3673 66.9143 33.7072C66.9143 52.047 52.047 66.9143 33.7072 66.9143C15.3673 66.9143 0.5 52.047 0.5 33.7072Z" stroke="#6C63FF"/>
<path d="M49.9845 22C49.9845 20.35 48.605 19 46.9 19H22.1C20.395 19 19 20.35 19 22V40C19 41.65 20.395 43 22.1 43H43.8L50 49L49.9845 22ZM43.8 37H25.2V34H43.8V37ZM43.8 32.5H25.2V29.5H43.8V32.5ZM43.8 28H25.2V25H43.8V28Z" fill="#6C63FF"/>
</svg>
