<svg width="68" height="68" viewBox="0 0 68 68" fill="none" xmlns="http://www.w3.org/2000/svg">
<path d="M0.5 33.7072C0.5 15.3673 15.3673 0.5 33.7072 0.5C52.047 0.5 66.9143 15.3673 66.9143 33.7072C66.9143 52.047 52.047 66.9143 33.7072 66.9143C15.3673 66.9143 0.5 52.047 0.5 33.7072Z" stroke="#6C63FF"/>
<path d="M40.5 38H30V35H40.5V38ZM45 32H30V29H45V32ZM45 26H30V23H45V26ZM21 23V47H45V50H21C20.2044 50 19.4413 49.6839 18.8787 49.1213C18.3161 48.5587 18 47.7956 18 47V23H21ZM48 17C48.7956 17 49.5587 17.3161 50.1213 17.8787C50.6839 18.4413 51 19.2044 51 20V41C51 42.665 49.665 44 48 44H27C26.2044 44 25.4413 43.6839 24.8787 43.1213C24.3161 42.5587 24 41.7956 24 41V20C24 18.335 25.335 17 27 17H48ZM27 20V41H48V20H27Z" fill="#6C63FF"/>
</svg>
