<svg width="94" height="40" viewBox="0 0 94 40" fill="none" xmlns="http://www.w3.org/2000/svg">
<path fill-rule="evenodd" clip-rule="evenodd" d="M11.1454 15.688C9.48073 14.1253 7.22158 13.1741 4.36789 12.8343C6.37227 12.0869 7.90101 11.0508 8.95418 9.72584C10.0413 8.40091 10.5849 6.92311 10.5849 5.29243C10.5849 4.05288 10.3 2.98426 9.73021 2.08657C12.2599 0.754138 15.1417 0 18.1996 0C28.2509 0 36.3991 8.14823 36.3991 18.1996C36.3991 28.2509 28.2509 36.3991 18.1996 36.3991C12.9642 36.3991 8.24513 34.1885 4.9249 30.6499C5.98465 30.4465 6.98802 30.1305 7.93501 29.7017C9.73552 28.8523 11.1454 27.7143 12.1646 26.2874C13.1838 24.8606 13.6933 23.2639 13.6933 21.4973C13.6933 19.1872 12.844 17.2508 11.1454 15.688ZM3.76564 29.2864C6.40933 28.47 7.73117 26.2813 7.73117 22.7203C7.73117 20.1045 7.10268 18.0321 5.8457 16.5034C4.63846 15.0351 2.83583 14.2719 0.437784 14.2138C0.15119 15.4966 0 16.8304 0 18.1996C0 22.3721 1.40412 26.2166 3.76564 29.2864ZM0.84751 12.6943C1.98613 12.4359 2.9048 11.8202 3.60351 10.8469C4.55474 9.52201 5.03036 7.82341 5.03036 5.75106C5.03036 5.7133 5.0302 5.67572 5.02988 5.63832C3.14124 7.61782 1.69439 10.0226 0.84751 12.6943ZM33.8081 11.4075C33.0947 10.83 32.3473 10.5412 31.566 10.5412C30.8865 10.5412 30.0882 10.83 29.1709 11.4075C28.2876 11.985 27.1495 12.9872 25.7567 14.414C25.6887 13.225 25.4848 12.2907 25.1452 11.6113C24.8394 10.8979 24.4997 10.5412 24.126 10.5412C24.092 10.5412 23.9731 10.5752 23.7693 10.6431L16.686 14.1083C16.618 14.1423 16.6011 14.2442 16.635 14.414C16.703 14.5839 16.7879 14.6688 16.8898 14.6688H16.9918C18.0449 14.1932 18.8602 13.9554 19.4378 13.9554C19.9813 13.9554 20.372 14.2102 20.6098 14.7198C20.8816 15.1954 21.0175 15.9598 21.0175 17.0129V26.5932C21.0175 27.9521 20.8306 28.8863 20.457 29.3959C20.0832 29.8715 19.3698 30.1093 18.3167 30.1093C18.2148 30.1093 18.1638 30.2113 18.1638 30.4151C18.1638 30.6189 18.2148 30.7208 18.3167 30.7208C19.1999 30.7208 19.8964 30.7039 20.406 30.6699L23.4126 30.6189L27.5402 30.6699C28.2196 30.7039 29.1539 30.7208 30.343 30.7208C30.4788 30.7208 30.5468 30.6189 30.5468 30.4151C30.5468 30.2113 30.4788 30.1093 30.343 30.1093C28.6104 30.1093 27.4213 29.8715 26.7758 29.3959C26.1303 28.8863 25.8076 27.9521 25.8076 26.5932V15.6371C26.623 14.8217 27.2174 14.2952 27.5912 14.0573C27.9988 13.7856 28.3725 13.6497 28.7123 13.6497C29.018 13.6497 29.2728 13.7346 29.4767 13.9045C29.7144 14.0404 29.9862 14.2781 30.292 14.6179C30.6317 15.0256 30.9545 15.3313 31.2602 15.5351C31.5999 15.739 32.0246 15.8409 32.5342 15.8409C33.2476 15.8409 33.8251 15.6201 34.2668 15.1784C34.7084 14.7028 34.9292 14.1083 34.9292 13.3949C34.9292 12.6135 34.5555 11.9511 33.8081 11.4075Z" fill="#FAFAFA"/>
<path d="M41.5406 30.7209C41.4748 30.7209 41.4419 30.655 41.4419 30.5234C41.4419 30.3918 41.4748 30.326 41.5406 30.326C42.2206 30.326 42.6813 30.1725 42.9226 29.8653C43.1639 29.5363 43.2845 28.933 43.2845 28.0556V22.1656C43.2845 21.4198 43.2077 20.8823 43.0542 20.5533C42.9007 20.2242 42.6483 20.0597 42.2974 20.0597C42.0122 20.0597 41.6064 20.1803 41.0799 20.4216H41.047C40.9593 20.4216 40.8935 20.3668 40.8496 20.2571C40.8057 20.1255 40.8167 20.0487 40.8825 20.0268L45.8511 17.7235L45.9498 17.6906C46.0595 17.6906 46.1692 17.7454 46.2789 17.8551C46.3886 17.9648 46.4434 18.0635 46.4434 18.1512V18.8751C46.3995 19.7526 46.3776 20.8275 46.3776 22.0998V28.0556C46.3776 28.933 46.4982 29.5363 46.7395 29.8653C47.0028 30.1725 47.4744 30.326 48.1544 30.326C48.2202 30.326 48.2532 30.3918 48.2532 30.5234C48.2532 30.655 48.2202 30.7209 48.1544 30.7209C47.5841 30.7209 47.1344 30.7099 46.8053 30.6879L44.8311 30.655L42.8897 30.6879C42.5606 30.7099 42.111 30.7209 41.5406 30.7209ZM44.6994 14.433C44.0633 14.433 43.5697 14.2575 43.2187 13.9065C42.8678 13.5555 42.6922 13.062 42.6922 12.4258C42.6922 11.8554 42.8678 11.4057 43.2187 11.0767C43.5917 10.7257 44.0852 10.5502 44.6994 10.5502C45.3136 10.5502 45.7853 10.7147 46.1143 11.0438C46.4434 11.3728 46.6079 11.8335 46.6079 12.4258C46.6079 13.062 46.4434 13.5555 46.1143 13.9065C45.7853 14.2575 45.3136 14.433 44.6994 14.433ZM65.4523 28.582C65.5181 28.582 65.573 28.6369 65.6168 28.7466C65.6827 28.8563 65.6936 28.9221 65.6497 28.944L61.1089 31.1486L60.9444 31.1815C60.7469 31.1815 60.5605 30.9731 60.385 30.5563C60.2314 30.1396 60.1327 29.5692 60.0888 28.8453C58.4656 30.3808 56.8094 31.1486 55.1202 31.1486C54.1551 31.1486 53.2775 30.8964 52.4878 30.3918C51.7201 29.8872 51.1058 29.1524 50.6452 28.1872C50.1845 27.2 49.9542 26.0484 49.9542 24.7322C49.9542 23.065 50.3381 21.7049 51.1058 20.652C51.8955 19.5771 52.8608 18.7983 54.0014 18.3157C55.1641 17.8332 56.3268 17.5918 57.4894 17.5918C58.3011 17.5918 59.1566 17.7235 60.0559 17.9867V11.3399C60.0559 10.5721 59.9792 10.0237 59.8256 9.69469C59.694 9.36564 59.4527 9.20112 59.1017 9.20112C58.8165 9.20112 58.4107 9.32174 57.8842 9.56307H57.8513C57.7636 9.56307 57.6868 9.50825 57.621 9.39855C57.5772 9.26693 57.5772 9.19012 57.621 9.16821L62.458 6.89778L62.5896 6.86488C62.6993 6.86488 62.8199 6.91971 62.9516 7.0294C63.0832 7.11714 63.149 7.20489 63.149 7.29264V26.9039C63.149 27.6497 63.2148 28.1762 63.3464 28.4833C63.5 28.7905 63.7413 28.944 64.0703 28.944C64.3555 28.944 64.8052 28.8234 65.4194 28.582H65.4523ZM56.93 29.5692C58.0268 29.5692 59.0688 29.1085 60.0559 28.1872V28.0227V20.0268C59.6611 19.4784 59.2114 19.0835 58.7068 18.8422C58.2243 18.579 57.6539 18.4474 56.9958 18.4474C55.8112 18.4474 54.9009 18.8641 54.2647 19.6977C53.6505 20.5094 53.3434 21.8366 53.3434 23.6792C53.3434 25.5219 53.6724 26.9697 54.3305 28.0227C54.9886 29.0537 55.8551 29.5692 56.93 29.5692ZM74.0983 29.273C75.3926 29.4924 76.4242 29.7118 77.1915 29.9311C77.9595 30.1505 78.6176 30.5234 79.1658 31.0499C79.7365 31.5764 80.0211 32.3222 80.0211 33.2874C80.0211 34.472 79.6375 35.5798 78.8695 36.6108C78.124 37.6418 77.1041 38.4645 75.8098 39.0787C74.5372 39.6929 73.1555 40 71.6636 40C70.0404 40 68.7132 39.649 67.6821 38.947C66.6512 38.2451 66.1356 37.3347 66.1356 36.216C66.1356 35.4701 66.3769 34.7023 66.8595 33.9126C67.3422 33.1229 68.2415 32.2564 69.5577 31.3131C68.8996 31.1157 68.3841 30.8306 68.0112 30.4576C67.6602 30.0847 67.4847 29.5802 67.4847 28.944C67.4847 28.3956 67.6931 27.8362 68.1099 27.2658C68.5486 26.6736 69.2177 26.1252 70.1171 25.6206C69.1519 25.2916 68.406 24.787 67.8796 24.107C67.3531 23.427 67.0898 22.6921 67.0898 21.9024C67.0898 21.0249 67.3751 20.279 67.9454 19.6648C68.5157 19.0506 69.2396 18.59 70.1171 18.2828C70.9946 17.9538 71.872 17.7893 72.7495 17.7893C74.2191 17.7893 75.437 18.1512 76.4016 18.8751C76.9942 18.4803 77.5758 18.1841 78.1459 17.9867C78.7166 17.7893 79.3303 17.6906 79.9884 17.6906C80.1638 17.6906 80.2519 17.9977 80.2519 18.6119C80.2519 18.919 80.2082 19.259 80.1201 19.6319C80.0328 20.0049 79.9556 20.1584 79.8901 20.0926C78.9685 19.7197 78.1459 19.5332 77.4222 19.5332H77.1587C77.7295 20.2132 78.0141 20.981 78.0141 21.8366C78.0141 22.6702 77.7295 23.405 77.1587 24.0412C76.6105 24.6554 75.8971 25.127 75.0199 25.4561C74.1427 25.7851 73.2429 25.9497 72.3217 25.9497C71.7294 25.9497 71.17 25.8838 70.6436 25.7522C70.2049 26.1032 69.9855 26.5529 69.9855 27.1013C69.9855 27.5839 70.161 27.9569 70.5119 28.2201C70.8849 28.4833 71.3346 28.6808 71.861 28.8124C72.3875 28.944 73.1337 29.0975 74.0983 29.273ZM71.6636 18.4145C70.7423 18.4145 70.2816 19.281 70.2816 21.0139C70.2816 22.1546 70.5558 23.1637 71.1042 24.0412C71.6527 24.9186 72.3546 25.3574 73.2101 25.3574C73.6273 25.3574 73.9891 25.138 74.2963 24.6993C74.6253 24.2605 74.7899 23.5695 74.7899 22.6263C74.7899 21.4417 74.4826 20.4436 73.8682 19.6319C73.2538 18.8203 72.5191 18.4145 71.6636 18.4145ZM73.4074 38.947C74.5482 38.947 75.4698 38.607 76.1716 37.927C76.8952 37.2689 77.2577 36.3805 77.2577 35.2617C77.2577 34.4281 77.016 33.781 76.5334 33.3203C76.0726 32.8816 75.5026 32.5635 74.8226 32.3661C74.1645 32.1906 73.2538 32.0151 72.0914 31.8396L70.3145 31.5435C69.7003 32.2674 69.3932 33.2984 69.3932 34.6365C69.3932 36.0185 69.7661 37.0825 70.5119 37.8283C71.2578 38.5741 72.223 38.947 73.4074 38.947ZM92.9021 28.5491C92.9457 28.5491 92.9901 28.593 93.0338 28.6808C93.0993 28.7685 93.1103 28.8343 93.0666 28.8782C92.2549 29.6679 91.4323 30.2383 90.5987 30.5892C89.7652 30.9402 88.8552 31.1157 87.8681 31.1157C86.4856 31.1157 85.2903 30.8306 84.2813 30.2602C83.2723 29.6679 82.5043 28.8892 81.978 27.9239C81.4516 26.9368 81.1881 25.8838 81.1881 24.7651C81.1881 23.4928 81.5171 22.3191 82.1752 21.2443C82.8333 20.1474 83.7324 19.2919 84.8731 18.6777C86.0139 18.0415 87.2864 17.7235 88.6907 17.7235C90.0506 17.7235 91.0923 18.0196 91.8166 18.6119C92.5402 19.1823 92.9021 19.972 92.9021 20.981C92.9021 21.6172 92.7812 21.9353 92.5402 21.9353H90.5332L84.6103 22.0011C84.5441 22.4179 84.5113 22.8785 84.5113 23.3831C84.5113 25.2696 84.9503 26.7613 85.8275 27.8581C86.7273 28.955 87.9554 29.5034 89.5133 29.5034C90.0615 29.5034 90.6315 29.4266 91.2241 29.273C91.8166 29.1195 92.3539 28.8892 92.8365 28.582L92.9021 28.5491ZM87.4728 18.3816C86.8147 18.3816 86.2447 18.6448 85.762 19.1713C85.2794 19.6977 84.9285 20.4216 84.7086 21.343L89.3815 21.2443C89.3153 19.3358 88.679 18.3816 87.4728 18.3816Z" fill="#FAFAFA"/>
</svg>
