<svg width="20" height="20" viewBox="0 0 22 22" fill="none" xmlns="http://www.w3.org/2000/svg">
                                        <circle cx="11" cy="11" r="11" fill="url(#comment0_linear)"></circle>
                                        <path d="M15.2816 6.79756C14.108 5.60992 12.4962 4.95954 10.8279 5.00195C7.50528 5.10092 4.90376 7.85797 5.00273 11.1806C5.01687 11.8734 5.15826 12.552 5.41275 13.1882C5.62483 13.7255 5.90761 14.2204 6.26107 14.6728L5.76622 15.8463C5.56828 16.2988 5.78036 16.8219 6.2328 17.0198C6.38832 17.0905 6.57213 17.1047 6.74179 17.0764L9.03226 16.6805C9.8523 16.9633 10.7148 17.0622 11.5772 16.9774C14.5322 16.6805 16.8368 14.2628 16.9923 11.2937C17.0772 9.61116 16.4551 7.98521 15.2816 6.79756ZM10.5592 13.4003H8.98984C8.74948 13.4003 8.5374 13.2024 8.5374 12.9479C8.5374 12.7075 8.73534 12.4955 8.98984 12.4955H10.5592C10.7996 12.4955 11.0117 12.6934 11.0117 12.9479C11.0117 13.2024 10.8137 13.4003 10.5592 13.4003ZM13.0052 11.5623H8.98984C8.74948 11.5623 8.5374 11.3644 8.5374 11.1099C8.5374 10.8554 8.73534 10.6574 8.98984 10.6574H13.0052C13.2456 10.6574 13.4577 10.8554 13.4577 11.1099C13.4577 11.3644 13.2456 11.5623 13.0052 11.5623ZM13.0052 9.71013H8.98984C8.74948 9.71013 8.5374 9.51219 8.5374 9.25769C8.5374 9.01734 8.73534 8.80526 8.98984 8.80526H13.0052C13.2456 8.80526 13.4577 9.0032 13.4577 9.25769C13.4577 9.49805 13.2456 9.71013 13.0052 9.71013Z" fill="#FAFAFA"></path>
                                        <defs>
                                            <linearGradient id="comment0_linear" x1="15.5" y1="20.5" x2="8.5" y2="3.5" gradientUnits="userSpaceOnUse">
                                                <stop stop-color="#39D020"></stop>
                                                <stop offset="1" stop-color="#77FF61"></stop>
                                            </linearGradient>
                                        </defs>
                                    </svg>