<svg width="40" height="40" viewBox="0 0 40 40" fill="none" xmlns="http://www.w3.org/2000/svg">
<path fill-rule="evenodd" clip-rule="evenodd" d="M12.248 17.24C10.4186 15.5226 7.936 14.4774 4.8 14.104C7.00266 13.2826 8.68264 12.144 9.84 10.688C11.0346 9.232 11.632 7.608 11.632 5.816C11.632 4.45382 11.319 3.27949 10.6928 2.29299C13.4728 0.828744 16.6396 0 20 0C31.0457 0 40 8.95432 40 20C40 31.0457 31.0457 40 20 40C14.2467 40 9.0608 37.5707 5.41211 33.682C6.5767 33.4586 7.67934 33.1113 8.72 32.64C10.6986 31.7066 12.248 30.456 13.368 28.888C14.488 27.32 15.048 25.5654 15.048 23.624C15.048 21.0854 14.1146 18.9574 12.248 17.24ZM4.13817 32.1837C7.04339 31.2865 8.496 28.8813 8.496 24.968C8.496 22.0934 7.80534 19.816 6.424 18.136C5.09734 16.5225 3.11637 15.6838 0.481094 15.6199C0.166146 17.0296 0 18.4954 0 20C0 24.5853 1.54303 28.8102 4.13817 32.1837ZM0.931352 13.9501C2.18262 13.6662 3.19217 12.9895 3.96 11.92C5.00534 10.464 5.528 8.59736 5.528 6.32C5.528 6.2785 5.52782 6.23721 5.52747 6.19611C3.452 8.37144 1.86202 11.0141 0.931352 13.9501ZM37.1527 12.536C36.3687 11.9014 35.5474 11.584 34.6887 11.584C33.942 11.584 33.0647 11.9014 32.0567 12.536C31.086 13.1706 29.8354 14.272 28.3047 15.84C28.23 14.5334 28.006 13.5066 27.6327 12.76C27.2967 11.976 26.9234 11.584 26.5127 11.584C26.4754 11.584 26.3447 11.6214 26.1207 11.696L18.3367 15.504C18.262 15.5414 18.2434 15.6534 18.2807 15.84C18.3554 16.0266 18.4487 16.12 18.5607 16.12H18.6727C19.83 15.5974 20.726 15.336 21.3607 15.336C21.958 15.336 22.3874 15.616 22.6487 16.176C22.9474 16.6986 23.0967 17.5386 23.0967 18.696V29.224C23.0967 30.7174 22.8914 31.744 22.4807 32.304C22.07 32.8266 21.286 33.088 20.1287 33.088C20.0167 33.088 19.9607 33.2 19.9607 33.424C19.9607 33.648 20.0167 33.76 20.1287 33.76C21.0994 33.76 21.8647 33.7414 22.4247 33.704L25.7287 33.648L30.2647 33.704C31.0114 33.7414 32.038 33.76 33.3447 33.76C33.494 33.76 33.5687 33.648 33.5687 33.424C33.5687 33.2 33.494 33.088 33.3447 33.088C31.4407 33.088 30.134 32.8266 29.4247 32.304C28.7154 31.744 28.3607 30.7174 28.3607 29.224V17.184C29.2567 16.288 29.91 15.7094 30.3207 15.448C30.7687 15.1494 31.1794 15 31.5527 15C31.8887 15 32.1687 15.0934 32.3927 15.28C32.654 15.4294 32.9527 15.6906 33.2887 16.064C33.662 16.512 34.0167 16.848 34.3527 17.072C34.726 17.296 35.1927 17.408 35.7527 17.408C36.5367 17.408 37.1714 17.1654 37.6567 16.68C38.142 16.1574 38.3847 15.504 38.3847 14.72C38.3847 13.8614 37.974 13.1334 37.1527 12.536Z" fill="#333333"/>
</svg>
