<svg width="68" height="68" viewBox="0 0 68 68" fill="none" xmlns="http://www.w3.org/2000/svg">
<path d="M0.5 33.7072C0.5 15.3673 15.3673 0.5 33.7072 0.5C52.047 0.5 66.9143 15.3673 66.9143 33.7072C66.9143 52.047 52.047 66.9143 33.7072 66.9143C15.3673 66.9143 0.5 52.047 0.5 33.7072Z" stroke="#6C63FF"/>
<path d="M32.5 50H35.5V47H32.5V50ZM26.5 50H29.5V47H26.5V50ZM38.5 50H41.5V47H38.5V50ZM46 17H22C20.35 17 19 18.35 19 20V47L25 41H46C47.665 41 49 39.665 49 38V20C49 18.35 47.665 17 46 17ZM46 38H25L22 41V20H46" fill="#6C63FF"/>
</svg>
