<svg width="68" height="68" viewBox="0 0 68 68" fill="none" xmlns="http://www.w3.org/2000/svg">
<path d="M0.5 33.7072C0.5 15.3673 15.3673 0.5 33.7072 0.5C52.047 0.5 66.9143 15.3673 66.9143 33.7072C66.9143 52.047 52.047 66.9143 33.7072 66.9143C15.3673 66.9143 0.5 52.047 0.5 33.7072Z" stroke="#6C63FF"/>
<path d="M52.9586 28.0962L39.4124 26.9281L34.1182 14.4557L28.8241 26.9469L15.2778 28.0962L25.5647 37.0077L22.4749 50.2525L34.1182 43.225L45.7616 50.2525L42.6906 37.0077L52.9586 28.0962ZM34.1182 39.7019L27.0342 43.9786L28.9183 35.9149L22.6633 30.4889L30.9154 29.773L34.1182 22.1803L37.3399 29.7918L45.592 30.5078L39.337 35.9338L41.221 43.9975L34.1182 39.7019Z" fill="#6C63FF"/>
</svg>
