<svg width="94" height="40" viewBox="0 0 94 40" fill="none" xmlns="http://www.w3.org/2000/svg">
<path fill-rule="evenodd" clip-rule="evenodd" d="M11.1454 15.688C9.48073 14.1253 7.22158 13.1741 4.36789 12.8343C6.37227 12.0869 7.90101 11.0508 8.95418 9.72584C10.0413 8.40091 10.5849 6.92311 10.5849 5.29243C10.5849 4.05288 10.3 2.98426 9.73021 2.08657C12.2599 0.754138 15.1417 0 18.1996 0C28.2509 0 36.3991 8.14823 36.3991 18.1996C36.3991 28.2509 28.2509 36.3991 18.1996 36.3991C12.9642 36.3991 8.24513 34.1885 4.9249 30.6499C5.98465 30.4465 6.98802 30.1305 7.93501 29.7017C9.73552 28.8523 11.1454 27.7143 12.1646 26.2874C13.1838 24.8606 13.6933 23.2639 13.6933 21.4973C13.6933 19.1872 12.844 17.2508 11.1454 15.688ZM3.76564 29.2864C6.40933 28.47 7.73117 26.2813 7.73117 22.7203C7.73117 20.1045 7.10268 18.0321 5.8457 16.5034C4.63846 15.0351 2.83583 14.2719 0.437784 14.2138C0.15119 15.4966 0 16.8304 0 18.1996C0 22.3721 1.40412 26.2166 3.76564 29.2864ZM0.84751 12.6943C1.98613 12.4359 2.9048 11.8202 3.60351 10.8469C4.55474 9.52201 5.03036 7.82341 5.03036 5.75106C5.03036 5.7133 5.0302 5.67572 5.02988 5.63832C3.14124 7.61782 1.69439 10.0226 0.84751 12.6943ZM33.8081 11.4075C33.0947 10.83 32.3473 10.5412 31.566 10.5412C30.8865 10.5412 30.0882 10.83 29.1709 11.4075C28.2876 11.985 27.1495 12.9872 25.7567 14.414C25.6887 13.225 25.4848 12.2907 25.1452 11.6113C24.8394 10.8979 24.4997 10.5412 24.126 10.5412C24.092 10.5412 23.9731 10.5752 23.7693 10.6431L16.686 14.1083C16.618 14.1423 16.6011 14.2442 16.635 14.414C16.703 14.5839 16.7879 14.6688 16.8898 14.6688H16.9918C18.0449 14.1932 18.8602 13.9554 19.4378 13.9554C19.9813 13.9554 20.372 14.2102 20.6098 14.7198C20.8816 15.1954 21.0175 15.9598 21.0175 17.0129V26.5932C21.0175 27.9521 20.8306 28.8863 20.457 29.3959C20.0832 29.8715 19.3698 30.1093 18.3167 30.1093C18.2148 30.1093 18.1638 30.2113 18.1638 30.4151C18.1638 30.6189 18.2148 30.7208 18.3167 30.7208C19.1999 30.7208 19.8964 30.7039 20.406 30.6699L23.4126 30.6189L27.5402 30.6699C28.2196 30.7039 29.1539 30.7208 30.343 30.7208C30.4788 30.7208 30.5468 30.6189 30.5468 30.4151C30.5468 30.2113 30.4788 30.1093 30.343 30.1093C28.6104 30.1093 27.4213 29.8715 26.7758 29.3959C26.1303 28.8863 25.8076 27.9521 25.8076 26.5932V15.6371C26.623 14.8217 27.2174 14.2952 27.5912 14.0573C27.9988 13.7856 28.3725 13.6497 28.7123 13.6497C29.018 13.6497 29.2728 13.7346 29.4767 13.9045C29.7144 14.0404 29.9862 14.2781 30.292 14.6179C30.6317 15.0256 30.9545 15.3313 31.2602 15.5351C31.5999 15.739 32.0246 15.8409 32.5342 15.8409C33.2476 15.8409 33.8251 15.6201 34.2668 15.1784C34.7084 14.7028 34.9292 14.1083 34.9292 13.3949C34.9292 12.6135 34.5555 11.9511 33.8081 11.4075Z" fill="#FAFAFA"/>
<path d="M41.5407 30.7208C41.4749 30.7208 41.442 30.655 41.442 30.5234C41.442 30.3918 41.4749 30.326 41.5407 30.326C42.2207 30.326 42.6814 30.1725 42.9227 29.8653C43.164 29.5363 43.2847 28.933 43.2847 28.0556V22.1656C43.2847 21.4198 43.2079 20.8823 43.0543 20.5533C42.9008 20.2242 42.6485 20.0597 42.2975 20.0597C42.0124 20.0597 41.6065 20.1803 41.08 20.4216H41.0471C40.9594 20.4216 40.8936 20.3668 40.8497 20.2571C40.8058 20.1255 40.8168 20.0487 40.8826 20.0268L45.8512 17.7235L45.9499 17.6905C46.0596 17.6905 46.1693 17.7454 46.279 17.8551C46.3887 17.9648 46.4435 18.0635 46.4435 18.1512V18.8751C46.3996 19.7526 46.3777 20.8275 46.3777 22.0998V28.0556C46.3777 28.933 46.4983 29.5363 46.7397 29.8653C47.0029 30.1725 47.4746 30.326 48.1546 30.326C48.2204 30.326 48.2533 30.3918 48.2533 30.5234C48.2533 30.655 48.2204 30.7208 48.1546 30.7208C47.5842 30.7208 47.1345 30.7098 46.8055 30.6879L44.8312 30.655L42.8898 30.6879C42.5607 30.7098 42.1111 30.7208 41.5407 30.7208ZM44.6996 14.433C44.0634 14.433 43.5698 14.2575 43.2188 13.9065C42.8679 13.5555 42.6924 13.062 42.6924 12.4258C42.6924 11.8554 42.8679 11.4057 43.2188 11.0767C43.5918 10.7257 44.0854 10.5502 44.6996 10.5502C45.3138 10.5502 45.7854 10.7147 46.1145 11.0438C46.4435 11.3728 46.608 11.8335 46.608 12.4258C46.608 13.062 46.4435 13.5555 46.1145 13.9065C45.7854 14.2575 45.3138 14.433 44.6996 14.433ZM65.4524 28.582C65.5182 28.582 65.5731 28.6368 65.617 28.7466C65.6828 28.8563 65.6938 28.9221 65.6499 28.944L61.109 31.1486L60.9445 31.1815C60.7471 31.1815 60.5606 30.9731 60.3851 30.5563C60.2316 30.1395 60.1329 29.5692 60.089 28.8453C58.4657 30.3808 56.8095 31.1486 55.1203 31.1486C54.1552 31.1486 53.2777 30.8964 52.4879 30.3918C51.7202 29.8872 51.1059 29.1524 50.6453 28.1872C50.1846 27.2 49.9543 26.0484 49.9543 24.7322C49.9543 23.065 50.3382 21.7049 51.1059 20.652C51.8957 19.5771 52.8609 18.7983 54.0016 18.3157C55.1642 17.8332 56.3269 17.5918 57.4895 17.5918C58.3012 17.5918 59.1567 17.7234 60.0561 17.9867V11.3399C60.0561 10.5721 59.9793 10.0237 59.8257 9.69468C59.6941 9.36563 59.4528 9.20111 59.1018 9.20111C58.8167 9.20111 58.4108 9.32173 57.8843 9.56306H57.8514C57.7637 9.56306 57.6869 9.50824 57.6211 9.39854C57.5773 9.26692 57.5773 9.19012 57.6211 9.1682L62.4581 6.89777L62.5897 6.86487C62.6994 6.86487 62.8201 6.91971 62.9517 7.02939C63.0833 7.11714 63.1491 7.20489 63.1491 7.29263V26.9039C63.1491 27.6497 63.2149 28.1762 63.3465 28.4833C63.5001 28.7905 63.7414 28.944 64.0704 28.944C64.3557 28.944 64.8053 28.8234 65.4195 28.582H65.4524ZM56.9301 29.5692C58.0269 29.5692 59.0689 29.1085 60.0561 28.1872V28.0226V20.0268C59.6612 19.4784 59.2115 19.0835 58.707 18.8422C58.2244 18.579 57.654 18.4474 56.9959 18.4474C55.8113 18.4474 54.901 18.8641 54.2648 19.6977C53.6506 20.5094 53.3435 21.8365 53.3435 23.6792C53.3435 25.5219 53.6725 26.9697 54.3306 28.0226C54.9887 29.0537 55.8552 29.5692 56.9301 29.5692ZM74.0984 29.273C75.3927 29.4924 76.4243 29.7118 77.1916 29.9311C77.9596 30.1505 78.6177 30.5234 79.1659 31.0499C79.7366 31.5764 80.0213 32.3222 80.0213 33.2874C80.0213 34.472 79.6376 35.5798 78.8696 36.6108C78.1241 37.6418 77.1042 38.4645 75.8099 39.0787C74.5374 39.6929 73.1557 40 71.6637 40C70.0405 40 68.7133 39.649 67.6822 38.947C66.6513 38.245 66.1357 37.3347 66.1357 36.2159C66.1357 35.4701 66.3771 34.7023 66.8596 33.9126C67.3423 33.1229 68.2416 32.2564 69.5578 31.3131C68.8997 31.1157 68.3842 30.8305 68.0113 30.4576C67.6603 30.0847 67.4848 29.5802 67.4848 28.944C67.4848 28.3956 67.6932 27.8362 68.11 27.2658C68.5488 26.6736 69.2179 26.1252 70.1172 25.6206C69.152 25.2916 68.4062 24.787 67.8797 24.107C67.3532 23.427 67.09 22.6921 67.09 21.9024C67.09 21.0249 67.3752 20.279 67.9455 19.6648C68.5159 19.0506 69.2398 18.59 70.1172 18.2828C70.9947 17.9538 71.8721 17.7893 72.7496 17.7893C74.2192 17.7893 75.4372 18.1512 76.4017 18.8751C76.9943 18.4803 77.576 18.1841 78.146 17.9867C78.7167 17.7893 79.3304 17.6905 79.9885 17.6905C80.1639 17.6905 80.252 17.9977 80.252 18.6119C80.252 18.919 80.2083 19.259 80.1203 19.6319C80.0329 20.0049 79.9557 20.1584 79.8902 20.0926C78.9686 19.7196 78.146 19.5332 77.4224 19.5332H77.1588C77.7296 20.2132 78.0142 20.981 78.0142 21.8365C78.0142 22.6702 77.7296 23.405 77.1588 24.0412C76.6107 24.6554 75.8972 25.127 75.02 25.4561C74.1428 25.7851 73.243 25.9496 72.3218 25.9496C71.7295 25.9496 71.1702 25.8838 70.6437 25.7522C70.205 26.1032 69.9856 26.5529 69.9856 27.1013C69.9856 27.5839 70.1611 27.9568 70.5121 28.2201C70.885 28.4833 71.3347 28.6807 71.8612 28.8124C72.3876 28.944 73.1338 29.0975 74.0984 29.273ZM71.6637 18.4145C70.7424 18.4145 70.2817 19.281 70.2817 21.0139C70.2817 22.1546 70.556 23.1637 71.1043 24.0412C71.6528 24.9186 72.3547 25.3574 73.2103 25.3574C73.6274 25.3574 73.9892 25.138 74.2964 24.6993C74.6255 24.2605 74.79 23.5695 74.79 22.6263C74.79 21.4417 74.4828 20.4436 73.8684 19.6319C73.2539 18.8203 72.5193 18.4145 71.6637 18.4145ZM73.4075 38.947C74.5483 38.947 75.4699 38.607 76.1717 37.927C76.8953 37.2689 77.2578 36.3805 77.2578 35.2617C77.2578 34.4281 77.0162 33.781 76.5335 33.3203C76.0727 32.8816 75.5027 32.5635 74.8227 32.3661C74.1646 32.1906 73.2539 32.0151 72.0915 31.8396L70.3146 31.5435C69.7004 32.2674 69.3933 33.2984 69.3933 34.6365C69.3933 36.0185 69.7662 37.0825 70.5121 37.8283C71.258 38.5741 72.2231 38.947 73.4075 38.947ZM92.9022 28.5491C92.9459 28.5491 92.9903 28.593 93.0339 28.6807C93.0995 28.7685 93.1104 28.8343 93.0667 28.8782C92.255 29.6679 91.4324 30.2383 90.5988 30.5892C89.7653 30.9402 88.8553 31.1157 87.8682 31.1157C86.4857 31.1157 85.2904 30.8306 84.2814 30.2602C83.2724 29.6679 82.5044 28.8892 81.9781 27.9239C81.4517 26.9368 81.1882 25.8838 81.1882 24.7651C81.1882 23.4928 81.5173 22.3191 82.1754 21.2443C82.8335 20.1474 83.7325 19.2919 84.8733 18.6777C86.014 18.0415 87.2865 17.7235 88.6908 17.7235C90.0507 17.7235 91.0924 18.0196 91.8168 18.6119C92.5404 19.1823 92.9022 19.972 92.9022 20.981C92.9022 21.6172 92.7813 21.9353 92.5404 21.9353H90.5333L84.6105 22.0011C84.5442 22.4178 84.5115 22.8785 84.5115 23.3831C84.5115 25.2696 84.9504 26.7613 85.8276 27.8581C86.7274 28.955 87.9555 29.5034 89.5134 29.5034C90.0616 29.5034 90.6316 29.4266 91.2242 29.273C91.8168 29.1195 92.354 28.8892 92.8367 28.582L92.9022 28.5491ZM87.4729 18.3815C86.8148 18.3815 86.2448 18.6448 85.7621 19.1713C85.2795 19.6977 84.9286 20.4216 84.7087 21.343L89.3817 21.2443C89.3154 19.3358 88.6791 18.3815 87.4729 18.3815Z" fill="#FAFAFA"/>
</svg>
