<svg width="1279" height="550" viewBox="0 0 1279 550" xmlns="http://www.w3.org/2000/svg">
    <g fill="#000000">
        <path fill-rule="evenodd" clip-rule="evenodd" d="M153.1 215.5C130.233 194.033 99.2 180.967 60 176.3C87.5333 166.033 108.533 151.8 123 133.6C137.933 115.4 145.4 95.1 145.4 72.7C145.4 55.6728 141.487 40.9936 133.66 28.6624C168.41 10.3593 207.995 0 250 0C388.071 0 500 111.929 500 250C500 388.071 388.071 500 250 500C178.084 500 113.26 469.634 67.6514 421.025C82.2088 418.232 95.9917 413.891 109 408C133.733 396.333 153.1 380.7 167.1 361.1C181.1 341.5 188.1 319.567 188.1 295.3C188.1 263.567 176.433 236.967 153.1 215.5ZM51.7271 402.296C88.0424 391.081 106.2 361.016 106.2 312.1C106.2 276.167 97.5667 247.7 80.3 226.7C63.7167 206.531 38.9546 196.048 6.01367 195.249C2.07683 212.87 0 231.192 0 250C0 307.316 19.2879 360.127 51.7271 402.296ZM11.6419 174.376C27.2827 170.827 39.9021 162.369 49.5 149C62.5667 130.8 69.1 107.467 69.1 79C69.1 78.4813 69.0978 77.9651 69.0934 77.4514C43.15 104.643 23.2752 137.676 11.6419 174.376ZM464.409 156.7C454.609 148.767 444.342 144.8 433.609 144.8C424.275 144.8 413.309 148.767 400.709 156.7C388.575 164.633 372.942 178.4 353.809 198C352.875 181.667 350.075 168.833 345.409 159.5C341.209 149.7 336.542 144.8 331.409 144.8C330.942 144.8 329.309 145.267 326.509 146.2L229.209 193.8C228.275 194.267 228.042 195.667 228.509 198C229.442 200.333 230.609 201.5 232.009 201.5H233.409C247.875 194.967 259.075 191.7 267.009 191.7C274.475 191.7 279.842 195.2 283.109 202.2C286.842 208.733 288.709 219.233 288.709 233.7V365.3C288.709 383.967 286.142 396.8 281.009 403.8C275.875 410.333 266.075 413.6 251.609 413.6C250.209 413.6 249.509 415 249.509 417.8C249.509 420.6 250.209 422 251.609 422C263.742 422 273.309 421.767 280.309 421.3L321.609 420.6L378.309 421.3C387.642 421.767 400.475 422 416.809 422C418.675 422 419.609 420.6 419.609 417.8C419.609 415 418.675 413.6 416.809 413.6C393.009 413.6 376.675 410.333 367.809 403.8C358.942 396.8 354.509 383.967 354.509 365.3V214.8C365.709 203.6 373.875 196.367 379.009 193.1C384.609 189.367 389.742 187.5 394.409 187.5C398.609 187.5 402.109 188.667 404.909 191C408.175 192.867 411.909 196.133 416.109 200.8C420.775 206.4 425.209 210.6 429.409 213.4C434.075 216.2 439.909 217.6 446.909 217.6C456.709 217.6 464.642 214.567 470.709 208.5C476.775 201.967 479.809 193.8 479.809 184C479.809 173.267 474.675 164.167 464.409 156.7Z"/>
        <path d="M570.628 422C569.724 422 569.272 421.096 569.272 419.288C569.272 417.48 569.724 416.576 570.628 416.576C579.969 416.576 586.297 414.467 589.612 410.248C592.927 405.728 594.584 397.441 594.584 385.388V304.48C594.584 294.235 593.529 286.852 591.42 282.332C589.311 277.812 585.845 275.552 581.024 275.552C577.107 275.552 571.532 277.209 564.3 280.524H563.848C562.643 280.524 561.739 279.771 561.136 278.264C560.533 276.456 560.684 275.401 561.588 275.1L629.84 243.46L631.196 243.008C632.703 243.008 634.209 243.761 635.716 245.268C637.223 246.775 637.976 248.131 637.976 249.336V259.28C637.373 271.333 637.072 286.099 637.072 303.576V385.388C637.072 397.441 638.729 405.728 642.044 410.248C645.66 414.467 652.139 416.576 661.48 416.576C662.384 416.576 662.836 417.48 662.836 419.288C662.836 421.096 662.384 422 661.48 422C653.645 422 647.468 421.849 642.948 421.548L615.828 421.096L589.16 421.548C584.64 421.849 578.463 422 570.628 422ZM614.02 198.26C605.281 198.26 598.501 195.849 593.68 191.028C588.859 186.207 586.448 179.427 586.448 170.688C586.448 162.853 588.859 156.676 593.68 152.156C598.803 147.335 605.583 144.924 614.02 144.924C622.457 144.924 628.936 147.184 633.456 151.704C637.976 156.224 640.236 162.552 640.236 170.688C640.236 179.427 637.976 186.207 633.456 191.028C628.936 195.849 622.457 198.26 614.02 198.26ZM899.094 392.62C899.998 392.62 900.752 393.373 901.354 394.88C902.258 396.387 902.409 397.291 901.806 397.592L839.43 427.876L837.17 428.328C834.458 428.328 831.897 425.465 829.486 419.74C827.377 414.015 826.021 406.18 825.418 396.236C803.12 417.329 780.369 427.876 757.166 427.876C743.908 427.876 731.854 424.411 721.006 417.48C710.46 410.549 702.022 400.455 695.694 387.196C689.366 373.636 686.202 357.816 686.202 339.736C686.202 316.835 691.476 298.152 702.022 283.688C712.87 268.923 726.129 258.225 741.798 251.596C757.769 244.967 773.74 241.652 789.71 241.652C800.86 241.652 812.612 243.46 824.966 247.076V155.772C824.966 145.225 823.912 137.692 821.802 133.172C819.994 128.652 816.68 126.392 811.858 126.392C807.941 126.392 802.366 128.049 795.134 131.364H794.682C793.477 131.364 792.422 130.611 791.518 129.104C790.916 127.296 790.916 126.241 791.518 125.94L857.962 94.752L859.77 94.3C861.277 94.3 862.934 95.0533 864.742 96.56C866.55 97.7653 867.454 98.9707 867.454 100.176V369.568C867.454 379.813 868.358 387.045 870.166 391.264C872.276 395.483 875.59 397.592 880.11 397.592C884.028 397.592 890.205 395.935 898.642 392.62H899.094ZM782.026 406.18C797.093 406.18 811.406 399.852 824.966 387.196V384.936V275.1C819.542 267.567 813.365 262.143 806.434 258.828C799.805 255.212 791.97 253.404 782.93 253.404C766.658 253.404 754.153 259.129 745.414 270.58C736.977 281.729 732.758 299.96 732.758 325.272C732.758 350.584 737.278 370.472 746.318 384.936C755.358 399.099 767.261 406.18 782.026 406.18ZM1017.86 402.112C1035.64 405.125 1049.81 408.139 1060.35 411.152C1070.9 414.165 1079.94 419.288 1087.47 426.52C1095.31 433.752 1099.22 443.997 1099.22 457.256C1099.22 473.528 1093.95 488.745 1083.4 502.908C1073.16 517.071 1059.15 528.371 1041.37 536.808C1023.89 545.245 1004.91 549.464 984.416 549.464C962.118 549.464 943.887 544.643 929.724 535C915.562 525.357 908.48 512.852 908.48 497.484C908.48 487.239 911.795 476.692 918.424 465.844C925.054 454.996 937.408 443.093 955.488 430.136C946.448 427.424 939.367 423.507 934.244 418.384C929.423 413.261 927.012 406.331 927.012 397.592C927.012 390.059 929.875 382.375 935.6 374.54C941.627 366.404 950.818 358.871 963.172 351.94C949.914 347.42 939.668 340.489 932.436 331.148C925.204 321.807 921.588 311.712 921.588 300.864C921.588 288.811 925.506 278.565 933.34 270.128C941.175 261.691 951.119 255.363 963.172 251.144C975.226 246.624 987.279 244.364 999.332 244.364C1019.52 244.364 1036.25 249.336 1049.5 259.28C1057.64 253.856 1065.63 249.788 1073.46 247.076C1081.3 244.364 1089.73 243.008 1098.77 243.008C1101.18 243.008 1102.39 247.227 1102.39 255.664C1102.39 259.883 1101.79 264.553 1100.58 269.676C1099.38 274.799 1098.32 276.908 1097.42 276.004C1084.76 270.881 1073.46 268.32 1063.52 268.32H1059.9C1067.74 277.661 1071.65 288.208 1071.65 299.96C1071.65 311.411 1067.74 321.505 1059.9 330.244C1052.37 338.681 1042.57 345.16 1030.52 349.68C1018.47 354.2 1006.11 356.46 993.456 356.46C985.32 356.46 977.636 355.556 970.404 353.748C964.378 358.569 961.364 364.747 961.364 372.28C961.364 378.909 963.775 384.032 968.596 387.648C973.719 391.264 979.896 393.976 987.128 395.784C994.36 397.592 1004.61 399.701 1017.86 402.112ZM984.416 252.952C971.76 252.952 965.432 264.855 965.432 288.66C965.432 304.329 969.199 318.191 976.732 330.244C984.266 342.297 993.908 348.324 1005.66 348.324C1011.39 348.324 1016.36 345.311 1020.58 339.284C1025.1 333.257 1027.36 323.765 1027.36 310.808C1027.36 294.536 1023.14 280.825 1014.7 269.676C1006.26 258.527 996.168 252.952 984.416 252.952ZM1008.37 535C1024.04 535 1036.7 530.329 1046.34 520.988C1056.28 511.948 1061.26 499.744 1061.26 484.376C1061.26 472.925 1057.94 464.036 1051.31 457.708C1044.98 451.681 1037.15 447.312 1027.81 444.6C1018.77 442.189 1006.26 439.779 990.292 437.368L965.884 433.3C957.447 443.244 953.228 457.407 953.228 475.788C953.228 494.772 958.351 509.387 968.596 519.632C978.842 529.877 992.1 535 1008.37 535ZM1276.16 392.168C1276.76 392.168 1277.37 392.771 1277.97 393.976C1278.87 395.181 1279.02 396.085 1278.42 396.688C1267.27 407.536 1255.97 415.371 1244.52 420.192C1233.07 425.013 1220.57 427.424 1207.01 427.424C1188.02 427.424 1171.6 423.507 1157.74 415.672C1143.88 407.536 1133.33 396.839 1126.1 383.58C1118.87 370.02 1115.25 355.556 1115.25 340.188C1115.25 322.711 1119.77 306.589 1128.81 291.824C1137.85 276.757 1150.2 265.005 1165.87 256.568C1181.54 247.829 1199.02 243.46 1218.31 243.46C1236.99 243.46 1251.3 247.528 1261.25 255.664C1271.19 263.499 1276.16 274.347 1276.16 288.208C1276.16 296.947 1274.5 301.316 1271.19 301.316H1243.62L1162.26 302.22C1161.35 307.945 1160.9 314.273 1160.9 321.204C1160.9 347.119 1166.93 367.609 1178.98 382.676C1191.34 397.743 1208.21 405.276 1229.61 405.276C1237.14 405.276 1244.97 404.221 1253.11 402.112C1261.25 400.003 1268.63 396.839 1275.26 392.62L1276.16 392.168ZM1201.58 252.5C1192.54 252.5 1184.71 256.116 1178.08 263.348C1171.45 270.58 1166.63 280.524 1163.61 293.18L1227.8 291.824C1226.89 265.608 1218.15 252.5 1201.58 252.5Z"/>
    </g>
</svg>
